<?xml version="1.0"?>
<svg xmlns="http://www.w3.org/2000/svg" height="512px" viewBox="-10 0 492 492.01058" width="512px" class=""><g><path d="m455.953125 228c0-92.214844-55.550781-175.355469-140.75-210.644531-85.195313-35.289063-183.261719-15.785157-248.472656 49.425781-78.242188 78.308594-88.949219 201.5-25.378907 292.128906 63.566407 90.628906 183.039063 122.515625 283.3125 75.609375l-1.941406 46.054688c0 .113281-.003906.226562-.003906.339843-.011719 4.324219 2.492188 8.257813 6.410156 10.085938 3.910156 1.808594 8.519532 1.144531 11.753906-1.699219l43.070313-37.109375 43.085937 37.121094c3.230469 2.835938 7.835938 3.5 11.738282 1.6875 3.917968-1.828125 6.421875-5.765625 6.410156-10.089844 0-.109375 0-.222656-.003906-.335937l-4.128906-98c35.785156-30.46875 41.25-83.703125 12.40625-120.808594 1.65625-11.175781 2.488281-22.464844 2.492187-33.765625zm-228 212c-116.898437 0-212-95.097656-212-212 0-116.898438 95.101563-212 212-212s212 95.101562 212 212c0 6.390625-.300781 12.789062-.863281 19.144531-15.582032-12.613281-35.027344-19.488281-55.074219-19.46875-8.136719.015625-16.234375 1.148438-24.0625 3.363281v-64.117187c-.027344-3.480469-2.289063-6.554687-5.609375-7.613281l-115.898438-37.371094c-1.601562-.511719-3.324218-.511719-4.925781 0l-115.945312 37.371094c-3.324219 1.058594-5.589844 4.128906-5.621094 7.613281v158.15625c.027344 3.484375 2.289063 6.554687 5.609375 7.613281l115.898438 37.371094c1.605468.515625 3.332031.515625 4.933593 0l64.257813-20.71875c5.34375 12.824219 13.632812 24.210938 24.199218 33.234375l-1.417968 33.714844c-30.132813 15.574219-63.558594 23.707031-97.480469 23.707031zm68.0625-124.324219c-.011719 6.179688.628906 12.34375 1.910156 18.390625l-57.972656 18.6875v-141.347656l104-33.5v59.460938c-29.5625 14.871093-48.140625 45.21875-47.9375 78.308593zm-168.0625-137.765625 96 30.917969v141.34375l-96-30.917969zm108 17.976563-89.808594-28.964844 89.808594-28.960937 89.808594 28.960937zm192.753906 273.746093-37.335937-32.171874c-4.164063-3.933594-10.671875-3.933594-14.835938 0l-37.335937 32.171874 3.21875-76.394531c25.941406 13.917969 57.128906 13.917969 83.070312 0zm-44.753906-81.957031c-39.765625 0-72-32.234375-72-72s32.234375-72 72-72 72 32.234375 72 72c-.042969 39.746094-32.253906 71.957031-72 72zm0 0" data-original="#000000" class="active-path" data-old_color="#000000" fill="#8B8B8B"/><path d="m419.605469 280.929688-47.261719 47.257812-24.015625-24.25c-3.117187-3.085938-8.140625-3.085938-11.257813 0-3.117187 3.089844-3.167968 8.109375-.113281 11.257812l29.675781 30.199219c1.472657 1.578125 3.507813 2.515625 5.664063 2.605469h.011719c2.152344-.085938 4.1875-1.011719 5.664062-2.578125l52.945313-53.0625c3.160156-3.125 3.183593-8.214844.058593-11.371094-3.121093-3.160156-8.214843-3.183593-11.371093-.058593zm0 0" data-original="#000000" class="active-path" data-old_color="#000000" fill="#8B8B8B"/></g> </svg>
