<?xml version="1.0" encoding="utf-8"?>
<!-- Generator: Adobe Illustrator 23.0.0, SVG Export Plug-In . SVG Version: 6.00 Build 0)  -->
<svg version="1.1" id="Layer_1" xmlns="http://www.w3.org/2000/svg" xmlns:xlink="http://www.w3.org/1999/xlink" x="0px" y="0px"
	 viewBox="0 0 20.79 14.28" style="enable-background:new 0 0 20.79 14.28;" xml:space="preserve">
<style type="text/css">
	.st0{fill:#79797A;}
</style>
<path class="st0" d="M17.1,6.14c0.27,0.1,0.53,0.18,0.77,0.3c1.47,0.7,2.27,2.27,2.02,3.92c-0.24,1.52-1.54,2.8-3.09,3.02
	c-1.53,0.21-3.01-0.54-3.75-1.9c-0.07-0.12-0.14-0.17-0.28-0.17c-3.6,0-7.2,0-10.79,0c-0.07,0-0.14,0-0.21,0
	c-0.48,0-0.73-0.25-0.73-0.73c0-1.01,0-2.02,0-3.03c0-1.93,0-3.87,0-5.8c0-0.12,0.01-0.25,0.03-0.37C1.14,1.1,1.35,0.95,1.68,0.95
	c1.71,0,3.43,0,5.14,0c3.18,0,6.37,0,9.55,0c0.49,0,0.73,0.24,0.73,0.72c0,1.42,0,2.85,0,4.27C17.1,6.02,17.1,6.09,17.1,6.14z
	 M15.92,2.75c-0.1,0.06-0.17,0.1-0.24,0.15c-2.06,1.38-4.13,2.76-6.19,4.14c-0.32,0.22-0.48,0.22-0.8,0.01
	C6.6,5.66,4.5,4.27,2.41,2.87C2.35,2.84,2.29,2.8,2.23,2.76c0,2.43,0,4.83,0,7.22c3.47,0,6.93,0,10.39,0
	c-0.11-1.9,1.23-3.63,3.31-3.92C15.92,4.97,15.92,3.88,15.92,2.75z M3.17,2.25c0.08,0.06,0.14,0.1,0.19,0.14
	c1.83,1.16,3.67,2.33,5.5,3.5c0.14,0.09,0.23,0.08,0.36,0c1.85-1.17,3.7-2.34,5.54-3.5c0.05-0.03,0.1-0.07,0.18-0.13
	C11.02,2.25,7.11,2.25,3.17,2.25z M14.13,8.35c-0.6,0.79-0.65,2.23,0.29,3.2c0.88,0.91,2.36,1.06,3.3,0.33
	C16.52,10.7,15.32,9.52,14.13,8.35z M15.04,7.51c1.16,1.16,2.33,2.33,3.5,3.5c0.6-1.03,0.37-2.4-0.57-3.21
	C16.99,6.94,15.67,7.07,15.04,7.51z"/>
</svg>
