<?xml version="1.0"?>
<!--Icons from directory ""-->
<svg xmlns="http://www.w3.org/2000/svg" width="38" height="1280" viewBox="0 0 38 1280"><svg class="icon" viewBox="0 0 1024 1024" width="32" height="32" id="agriculture" y="0"><defs><style/></defs><path fill="#FF6A00" d="M693.838 426.762c63.818-64.337 87.652-147.223 43.688-188.555-43.964-41.333-128.218-15.25-192.036 49.087-63.819 64.337-87.653 147.223-43.689 188.555 43.964 41.333 128.219 15.25 192.037-49.087zm-36.03-33.873c-47.153 47.537-103.145 64.87-121.213 47.884-18.068-16.987-2.229-72.07 44.924-119.606 47.153-47.537 103.146-64.87 121.214-47.884 18.068 16.986 2.228 72.07-44.925 119.606z"/><path fill="#FF6A00" d="M720.134 606.411c63.818-64.337 87.652-147.223 43.688-188.555-43.964-41.333-128.218-15.25-192.037 49.087-63.818 64.337-87.652 147.223-43.688 188.555 43.964 41.333 128.218 15.25 192.037-49.087zm-36.03-33.873c-47.153 47.537-103.146 64.87-121.214 47.884-18.068-16.986-2.228-72.07 44.925-119.606 47.153-47.537 103.146-64.87 121.213-47.884 18.068 16.987 2.23 72.07-44.924 119.606z"/><path fill="#FF6A00" d="M650.472 888.458c24.32-12.02 48.303-29.537 69.662-51.07 63.818-64.337 87.652-147.222 43.688-188.555-43.964-41.332-128.218-15.25-192.037 49.087-63.818 64.338-87.652 147.223-43.688 188.556 9.95 9.353 25.804 9.084 35.411-.602 9.608-9.686 9.332-25.12-.618-34.475-18.068-16.986-2.228-72.07 44.925-119.606s103.146-64.87 121.213-47.883c18.068 16.986 2.23 72.07-44.924 119.606-17.569 17.712-37.07 31.956-56.305 41.462-12.333 6.095-17.255 20.77-10.994 32.777 6.26 12.006 21.334 16.798 33.667 10.703zM318.563 392.89c-47.153-47.537-62.993-102.62-44.925-119.607 18.068-16.986 74.06.347 121.214 47.884 47.153 47.536 62.992 102.62 44.924 119.606-18.068 16.986-74.06-.347-121.213-47.884zm-36.03 33.872c63.818 64.338 148.073 90.42 192.037 49.087 43.964-41.332 20.13-124.218-43.689-188.555-63.818-64.338-148.072-90.42-192.036-49.087-43.964 41.332-20.13 124.218 43.688 188.555z"/><path fill="#FF6A00" d="M435.158 165.181c0-66.084 27.91-116.42 53.028-116.42 25.117 0 53.027 50.336 53.027 116.42S513.303 281.6 488.186 281.6c-25.118 0-53.028-50.335-53.028-116.419zm-50.087 0c0 89.44 41.997 165.18 103.115 165.18 61.117 0 103.114-75.74 103.114-165.18C591.3 75.741 549.303 0 488.186 0 427.068 0 385.07 75.741 385.07 165.181zM344.858 572.538c-47.153-47.536-62.992-102.62-44.924-119.606 18.068-16.986 74.06.347 121.214 47.884 47.153 47.536 62.992 102.62 44.924 119.606-18.068 16.986-74.06-.347-121.214-47.884zm-36.03 33.873c63.82 64.338 148.073 90.42 192.037 49.087 43.964-41.332 20.13-124.218-43.688-188.555-63.818-64.338-148.072-90.42-192.036-49.087-43.965 41.332-20.13 124.218 43.688 188.555z"/><path fill="#FF6A00" d="M344.858 803.516c-47.153-47.537-62.992-102.62-44.924-119.606 18.068-16.987 74.06.347 121.214 47.883C468.3 779.33 484.14 834.413 466.072 851.4c-18.068 16.987-74.06-.347-121.214-47.883zm-36.03 33.873c63.82 64.337 148.073 90.42 192.037 49.087s20.13-124.218-43.688-188.556c-63.818-64.337-148.072-90.42-192.036-49.087-43.965 41.333-20.13 124.218 43.688 188.556z"/><path fill="#FF6A00" d="M526.377 993.284V312.339c0-13.465-11.213-24.38-25.044-24.38-13.83 0-25.043 10.915-25.043 24.38v680.945c0 13.465 11.212 24.38 25.043 24.38s25.044-10.915 25.044-24.38z"/></svg><svg class="icon" viewBox="0 0 1024 1024" width="32" height="32" id="analysis" y="32"><defs><style/></defs><path fill="#FF6A00" d="M544 256H224c-17.664 0-32-14.336-32-32s14.336-32 32-32h320c17.664 0 32 14.336 32 32s-14.336 32-32 32zM288 576h-64c-17.664 0-32 14.336-32 32s14.336 32 32 32h64c17.664 0 32-14.336 32-32s-14.336-32-32-32zm129.984 288c0 17.664-14.336 32-32 32H92.032C76.608 896 64 883.392 64 867.968V28.032C64 12.608 76.608 0 95.168 0h610.368L896 192v98.048c0 17.664-14.336 32-32 32s-32-14.336-32-32.064V256H641.536V64H128v768H385.984c17.728 0 32 14.336 32 32zM704 192h128L704 64v128zM288 448h-64c-17.664 0-32 14.336-32 32s14.336 32 32 32h64c17.664 0 32-14.336 32-32s-14.336-32-32-32zm80-96c0-17.664-14.336-32-32-32H224c-17.664 0-32 14.336-32 32s14.336 32 32 32h112c17.664 0 32-14.336 32-32zm616.256 598.656c-15.744 13.76-39.808 12.16-53.632-3.712L791.488 787.392c-41.6 27.904-91.648 44.16-145.408 44.16-144.704 0-262.08-117.376-262.08-262.08s117.376-262.08 262.08-262.08 262.08 117.376 262.08 262.08c0 63.36-23.424 120.768-60.928 166.08l140.8 161.408c13.696 15.872 12.16 39.872-3.776 53.696zM646.08 760.064c105.088 0 190.592-85.504 190.592-190.592S751.168 378.88 646.08 378.88c-105.152 0-190.592 85.504-190.592 190.592s85.44 190.592 190.592 190.592z"/></svg><svg class="icon" viewBox="0 0 1024 1024" width="32" height="32" id="apparel" y="64"><defs><style/></defs><path fill="#FF6A00" d="M367.701 415.04l4.075 18.304-11.392 20.096 217.387 3.67a20.757 20.757 0 0 0 .533-41.537l-210.603-.533zm301.056 11.136l-1.408 7.275 3.52 6.528 299.243 556.373 18.283-30.613H35.648l18.09 30.976L367.916 440.34l3.946-6.976-1.77-7.808L282.112 37.91l-20.245 25.344h87.978l-17.493-9.536c.768 1.152 2.09 3.2 4.01 5.952a483.157 483.157 0 0 0 48.918 60.075c40.768 42.41 82.197 68.48 123.947 69.184h3.136c42.282-.661 82.944-26.944 121.92-69.59a446.443 446.443 0 0 0 49.834-66.282L666.24 63.253h98.304l-20.373-24.725-75.414 387.648zM789.76 21.76H654.4l-6.037 10.197a405.504 405.504 0 0 1-44.736 59.392c-31.958 34.944-63.936 55.638-91.926 56.064-29.61-.469-62.72-21.333-96.512-56.469a442.219 442.219 0 0 1-47.893-59.67l-6.123-9.535H235.861l5.76 25.344 87.958 387.669 2.176-14.805L17.579 976.32.085 1007.275h1023.062l-16.47-30.592-299.242-556.374 2.09 13.803L784.94 46.464l4.8-24.747z"/></svg><svg class="icon" viewBox="0 0 1024 1024" width="32" height="32" id="auto" y="96"><defs><style/></defs><path fill="#FF6A00" d="M243.81 920.381c67.326 0 121.904-54.579 121.904-121.905S311.136 676.571 243.81 676.571c-67.327 0-121.905 54.579-121.905 121.905s54.578 121.905 121.905 121.905zm0-48.762c-40.396 0-73.143-32.747-73.143-73.143 0-40.395 32.747-73.143 73.143-73.143 40.395 0 73.142 32.748 73.142 73.143 0 40.396-32.747 73.143-73.142 73.143zM804.571 920.381c67.327 0 121.905-54.579 121.905-121.905s-54.578-121.905-121.905-121.905c-67.326 0-121.904 54.579-121.904 121.905s54.578 121.905 121.904 121.905zm0-48.762c-40.395 0-73.142-32.747-73.142-73.143 0-40.395 32.747-73.143 73.142-73.143 40.396 0 73.143 32.748 73.143 73.143 0 40.396-32.747 73.143-73.143 73.143z"/><path fill="#FF6A00" d="M1011.81 810.667V578.894c0-67.37-54.513-122.072-121.68-122.072H36.49c-13.466 0-24.382 10.916-24.382 24.381v220.12c0 67.24 54.623 121.877 121.718 121.877 13.466 0 24.381-10.916 24.381-24.381 0-13.466-10.915-24.381-24.38-24.381-40.163 0-72.957-32.802-72.957-73.116V481.203l-24.38 24.381h853.64c40.199 0 72.918 32.832 72.918 73.31v231.773c0 13.465 10.915 24.38 24.38 24.38 13.466 0 24.382-10.915 24.382-24.38zM359.91 823.2h334.865c13.465 0 24.38-10.916 24.38-24.381 0-13.466-10.915-24.381-24.38-24.381H359.909c-13.465 0-24.38 10.915-24.38 24.38 0 13.466 10.915 24.382 24.38 24.382z"/><path fill="#FF6A00" d="M288.81 241.582l-20.62 11.37h353.734l-17.24-7.14 231.83 231.829L896 473.41l-256.836-262.08-7.14-7.14H254.745l-7.175 11.37L85.333 473.41h57.19L288.81 241.582z"/><path fill="#FF6A00" d="M463.238 228.571v244.115H512V228.57h-48.762z"/></svg><svg class="icon" viewBox="0 0 1024 1024" width="32" height="32" id="bags" y="128"><defs><style/></defs><path fill="#FF6A00" d="M311.616 316.95h389.91c121.322 0 219.52 98.09 219.52 219.434V951.04c0 13.418-10.817 24.213-24.363 24.213H116.459a24.405 24.405 0 0 1-24.363-24.213V536.384c0-121.11 98.41-219.435 219.52-219.435zM43.328 951.04A73.173 73.173 0 0 0 116.48 1024h780.224a72.96 72.96 0 0 0 73.13-72.96V536.363c0-148.267-120.042-268.203-268.287-268.203H311.616c-148.053 0-268.288 120.15-268.288 268.203V951.04zm268.203-512.17c13.568 0 24.384 10.815 24.384 24.533v72.853c0 13.653-10.838 24.533-24.384 24.533a24.277 24.277 0 0 1-24.384-24.533v-72.853c0-13.654 10.816-24.534 24.384-24.534zm-73.152 97.386a73.045 73.045 0 0 0 73.152 73.28c40.533 0 73.13-32.768 73.13-73.28v-72.853a73.045 73.045 0 0 0-73.13-73.28 73.088 73.088 0 0 0-73.152 73.28v72.853zm438.869-97.387c13.568 0 24.363 10.816 24.363 24.534v72.853c0 13.653-10.816 24.533-24.363 24.533a24.277 24.277 0 0 1-24.384-24.533v-72.853c0-13.654 10.816-24.534 24.384-24.534zm-73.152 97.387a73.045 73.045 0 0 0 73.152 73.28c40.533 0 73.13-32.768 73.13-73.28v-72.853a73.045 73.045 0 0 0-73.13-73.28 73.088 73.088 0 0 0-73.152 73.28v72.853zm-268.181-316.8c0-94.187 76.544-170.667 170.666-170.667 94.166 0 170.667 76.544 170.667 170.667v195.05h48.747v-195.05C725.995 98.389 627.69 0 506.58 0 385.536 0 287.147 98.304 287.147 219.435v195.05h48.768v-195.05zm426.752 633.877a24.384 24.384 0 1 0 0-48.768H92.097v48.768h670.59z"/></svg><svg class="icon" viewBox="0 0 1024 1024" width="32" height="32" id="beauty" y="160"><defs><style/></defs><path fill="#FF6A00" d="M743.619 512v487.619L768 975.239H402.437c-40.47 0-73.294-32.778-73.294-73.125V512l-24.381 24.38h268.19c13.466 0 24.381-10.915 24.381-24.38s-10.915-24.381-24.38-24.381H280.38v414.495c0 67.292 54.67 121.886 122.056 121.886H792.38V512c0-13.465-10.915-24.381-24.38-24.381S743.619 498.535 743.619 512zM670.476 390.095v-268.19c-1.23-15.18-4.911-33.562-12.97-52.456-16.372-38.388-45.385-62.035-87.402-57.092-4.714.555-9.446 1.476-14.191 2.744-29.79 7.958-59.334 29-88.797 59.025-12.533 12.772-24.222 26.373-34.805 39.973-6.381 8.2-11.03 14.657-13.647 18.524l-4.188 6.19V402.576h48.762v-256.29l-4.188 13.662c2.043-3.018 6.07-8.611 11.744-15.903 9.51-12.22 20.011-24.44 31.126-35.767C525.81 83.934 548.995 67.421 568.5 62.21c2.53-.676 4.966-1.15 7.302-1.425 16.808-1.977 28.07 7.202 36.853 27.794 3.281 7.695 5.75 16.185 7.457 24.71 1.018 5.082 1.535 8.897 1.695 10.732l-.092 266.074h48.762z"/><path fill="#FF6A00" d="M774.158 483.755l-85.333-97.524a24.381 24.381 0 0 0-18.349-8.326h-280.38a24.381 24.381 0 0 0-19.246 9.412l-85.333 109.715c-8.267 10.628-6.352 25.946 4.276 34.213 10.63 8.267 25.947 6.352 34.214-4.277l85.333-109.714-19.245 9.413h280.381l-18.348-8.326 85.333 97.523c8.867 10.134 24.27 11.161 34.403 2.294 10.134-8.867 11.161-24.27 2.294-34.403z"/></svg><svg class="icon" viewBox="0 0 1024 1024" width="32" height="32" id="chemical" y="192"><defs><style/></defs><path fill="#FF6A00" d="M539.152 470.894c41.772 0 75.636-33.546 75.636-74.927 0-41.38-33.864-74.926-75.636-74.926-41.773 0-75.637 33.546-75.637 74.926 0 41.381 33.864 74.927 75.637 74.927zm0-49.95c-13.925 0-25.213-11.183-25.213-24.977 0-13.793 11.288-24.975 25.213-24.975 13.924 0 25.212 11.182 25.212 24.975 0 13.794-11.288 24.976-25.212 24.976z"/><path fill="#FF6A00" d="M435.304 228.731c-187.55 36.724-324.759 200.355-324.759 392.017 0 220.698 180.606 399.61 403.394 399.61 222.789 0 403.394-178.912 403.394-399.61 0-180.996-126.866-339.296-302.754-386.035l-13.064 48.246c154.175 40.969 265.394 179.745 265.394 337.789 0 193.111-158.03 349.659-352.97 349.659-194.94 0-352.97-156.548-352.97-349.659 0-167.697 120.074-310.894 284.113-343.014l-9.778-49.003z"/><path fill="#FF6A00" d="M362.667 645.724c55.697 0 100.848-44.728 100.848-99.903 0-55.174-45.151-99.902-100.848-99.902-55.697 0-100.849 44.728-100.849 99.902 0 55.175 45.152 99.903 100.849 99.903zm0-49.952c-27.849 0-50.425-22.364-50.425-49.95 0-27.588 22.576-49.952 50.425-49.952 27.848 0 50.424 22.364 50.424 49.951s-22.576 49.951-50.424 49.951z"/><path fill="#FF6A00" d="M118.336 613.826c15.09 14.289 43.13 34.758 83.522 54.979 66.732 33.407 144.419 53.426 232.164 53.426 79.982 0 138.55-12.627 205.007-38.327 9.343-3.613 38.152-15.254 40.638-16.236 14.33-5.661 24.886-9.42 34.929-12.298 20.217-5.794 37.73-7.661 56.487-5.516 13.833 1.582 26.34-8.244 27.937-21.947 1.597-13.702-8.322-26.093-22.154-27.675-25.85-2.956-49.983-.384-76.284 7.155-11.911 3.414-23.867 7.67-39.595 13.884-2.813 1.111-31.382 12.655-40.295 16.102-60.983 23.583-113.508 34.907-186.67 34.907-79.461 0-149.454-18.037-209.42-48.057-20.875-10.45-38.962-21.608-54.156-32.7-8.88-6.482-14.67-11.346-17.267-13.805-10.066-9.53-26.025-9.174-35.646.797-9.622 9.97-9.262 25.78.803 35.311zM465.244 277.265V120.33l-25.216.005-72.214.01 25.216 24.976V55.805L367.817 80.78h285.734l-25.213-24.976v91.297l25.914-24.966-64.604-1.78-25.913-.715V283.09h50.424V145.321l-25.914 24.966 64.604 1.781 25.914.715V30.829H342.605v139.472l25.216-.004 72.214-.011-25.216-24.976v131.955h50.425z"/></svg><svg class="icon" viewBox="0 0 1024 1024" width="32" height="32" id="construction" y="224"><defs><style/></defs><path fill="#FF6A00" d="M1024 256v-76.8c0-14.131-11.469-25.6-25.6-25.6H25.6C11.469 153.6 0 165.069 0 179.2v307.2C0 500.531 11.469 512 25.6 512h76.8v307.2H76.8c-14.131 0-25.6 11.469-25.6 25.6s11.469 25.6 25.6 25.6h204.8c14.131 0 25.6-11.469 25.6-25.6s-11.469-25.6-25.6-25.6H256V665.6h512v153.6h-25.6c-14.131 0-25.6 11.469-25.6 25.6s11.469 25.6 25.6 25.6h204.8c14.131 0 25.6-11.469 25.6-25.6s-11.469-25.6-25.6-25.6h-25.6V512h76.8c14.131 0 25.6-11.469 25.6-25.6V256zm-51.2-10.598L757.402 460.8H573.798l256-256H972.8v40.602zM317.798 460.8l256-256h183.604l-256 256H317.798zm-256 0l256-256h183.604l-256 256H61.798zm183.604-256L51.2 399.002V204.8h194.202zM153.6 819.2V512h51.2v307.2h-51.2zM256 614.4V512h512v102.4H256zm614.4 204.8h-51.2V512h51.2v307.2zm-40.602-358.4L972.8 317.798V460.8H829.798z"/></svg><svg class="icon" viewBox="0 0 1024 1024" width="32" height="32" id="counter" y="256"><defs><style/></defs><path fill="#FF6A00" d="M835.296 65.29h-646.63c-19.84 0-35.91 18.183-35.91 40.614v812.182c0 22.45 16.07 40.623 35.91 40.623h646.63c19.858 0 35.946-18.174 35.946-40.623V105.904c0-22.43-16.087-40.614-35.946-40.614zm-468.957 786.4c0 16.097-12.18 29.15-27.186 29.15h-81.525c-15.007 0-27.169-13.053-27.169-29.15v-58.289c0-16.098 12.162-29.16 27.17-29.16h81.524c15.007 0 27.186 13.062 27.186 29.16v58.29zm0-174.8c0 16.02-12.18 29.01-27.186 29.01h-81.525c-15.007 0-27.169-12.99-27.169-29.01v-58.01c0-16.029 12.162-29.012 27.17-29.012h81.524c15.007 0 27.186 12.983 27.186 29.011v58.011zm0-174.521c0 16.097-12.18 29.149-27.186 29.149h-81.525c-15.007 0-27.169-13.052-27.169-29.15v-58.291c0-16.097 12.162-29.158 27.17-29.158h81.524c15.007 0 27.186 13.061 27.186 29.158v58.292zm213.6 349.322c0 16.096-12.163 29.15-27.169 29.15h-81.524c-15.006 0-27.17-13.054-27.17-29.15V793.4c0-16.098 12.164-29.16 27.17-29.16h81.525c15.006 0 27.169 13.062 27.169 29.16v58.29h-.001zm0-174.8c0 16.018-12.163 29.01-27.169 29.01h-81.524c-15.006 0-27.17-12.99-27.17-29.01v-58.012c0-16.028 12.164-29.01 27.17-29.01h81.525c15.006 0 27.169 12.982 27.169 29.01v58.011h-.001zm0-174.522c0 16.097-12.163 29.149-27.169 29.149h-81.524c-15.006 0-27.17-13.052-27.17-29.15v-58.291c0-16.097 12.164-29.158 27.17-29.158h81.525c15.006 0 27.169 13.061 27.169 29.158v58.292h-.001zM793.557 851.69c0 16.096-12.163 29.15-27.17 29.15h-81.524c-15.006 0-27.17-13.054-27.17-29.15V793.4c0-16.098 12.164-29.16 27.17-29.16h81.524c15.007 0 27.17 13.062 27.17 29.16v58.29zm0-174.8c0 16.018-12.163 29.01-27.17 29.01h-81.524c-15.006 0-27.17-12.99-27.17-29.01v-58.012c0-16.028 12.164-29.01 27.17-29.01h81.524c15.007 0 27.17 12.982 27.17 29.01v58.011zm0-174.522c0 16.097-12.163 29.149-27.17 29.149h-81.524c-15.006 0-27.17-13.052-27.17-29.15v-58.291c0-16.097 12.164-29.158 27.17-29.158h81.524c15.007 0 27.17 13.061 27.17 29.158v58.292zm.087-184.591c0 21.453-17.397 38.842-38.843 38.842H269.32c-21.462 0-38.842-17.389-38.842-38.842V162.432c0-21.454 17.38-38.842 38.842-38.842h485.483c21.446 0 38.843 17.388 38.843 38.842v155.346zm0 0"/></svg><svg class="icon" viewBox="0 0 1024 1024" width="32" height="32" id="earth" y="288"><defs><style/></defs><path fill="#FF6A00" d="M996.352 354.304C908.288 86.528 619.52-58.368 352.256 29.184 84.48 117.248-60.928 405.504 27.136 673.28 115.2 941.056 403.968 1085.952 671.232 998.4 780.8 962.048 868.864 891.392 930.816 803.328c2.56-4.608 3.072-10.24 1.024-16.384-4.096-12.288-16.384-18.432-28.672-14.336-6.656 2.048-10.752 6.144-13.312 11.776-55.296 77.312-134.144 139.264-231.424 171.008-155.136 51.2-318.464 15.36-436.224-80.896l23.04-155.648-90.624-84.992H67.072c-21.504-82.432-19.968-165.888 2.048-243.2l131.584-22.016 41.472-103.936 82.944-41.472 19.456-137.728c8.192-3.072 16.384-6.144 24.576-8.704 93.696-30.72 189.952-30.208 277.504-3.584l-17.92 106.496L471.04 317.44 320.512 575.488 522.24 755.2l186.88-70.144-19.968-138.752 132.096-32.768 81.92 81.92 70.144-29.184c-1.024 9.216-2.048 17.92-4.096 27.136v.512c0 2.56 0 4.608.512 6.656 4.096 12.288 16.896 17.92 28.672 14.336 9.216-3.072 15.36-11.264 15.36-20.992 12.8-77.824 8.704-159.744-17.408-239.616zm-793.6 378.368L186.368 842.24c-46.08-46.592-82.944-103.424-107.008-168.448h58.368l65.024 58.88zm85.504-535.552l-77.824 38.912L171.52 332.8l-88.064 14.848c39.936-101.888 115.712-189.44 217.6-241.664l-12.8 91.136zM834.56 469.504l-188.928 47.104 20.48 142.336-134.144 50.176-159.232-141.824 130.56-223.744 163.328-142.848L685.568 87.04C807.936 136.192 908.8 236.544 952.832 371.712c16.384 49.664 24.576 100.352 24.064 150.016l-63.488 26.624-78.848-78.848z"/></svg><svg class="icon" viewBox="0 0 1024 1024" width="32" height="32" id="electrical" y="320"><defs><style/></defs><path fill="#FF6A00" d="M370.992 770.602h299.707l-24.975-24.976v99.902l24.975-24.975H370.992l24.975 24.975v-99.902l-24.975 24.976zm0-49.952h-24.976V870.504h349.659V720.65H370.992zM271.09 246.114V46.309l-24.976 24.976h149.853l-24.975-24.976v199.805h49.951V21.333H221.138v224.781h49.951zM670.7 246.114V46.309l-24.976 24.976h149.853l-24.975-24.976v199.805h49.95V21.333H620.749v224.781h49.951z"/><path fill="#FF6A00" d="M518.451 283.577h402.004l2.758-.153c14.594-1.621 17.884.42 19.774 7.939 2.998 11.924.268 33.093-8.09 60.126-13.454 43.516-41.7 101.222-60.534 131.044-13.41 21.234-33.826 46.917-59.945 75.9-11.95 13.26-24.96 27.061-38.866 41.283-26.5 27.103-54.95 54.43-83.407 80.584a2289.562 2289.562 0 0 1-27.5 24.882 1209.05 1209.05 0 0 1-10.31 9.088l16.364-6.107H520.846v49.95H680.02l7.042-6.107c1.994-1.729 5.667-4.953 10.78-9.501a2339.29 2339.29 0 0 0 28.104-25.428c29.065-26.713 58.136-54.637 85.32-82.44 14.358-14.684 27.829-28.973 40.257-42.764 27.855-30.908 49.896-58.638 65.072-82.666 21.015-33.274 51.137-94.814 66.023-142.964 10.837-35.05 14.583-64.1 8.812-87.058-8.263-32.872-35.335-49.673-73.734-45.406l2.758-.153H518.451v49.951z"/><path fill="#FF6A00" d="M519.565 233.626H117.56l2.758.153c-38.4-4.267-65.47 12.534-73.734 45.406-5.771 22.957-2.025 52.008 8.812 87.058 14.886 48.15 45.008 109.69 66.023 142.964 15.176 24.028 37.217 51.758 65.072 82.666 12.428 13.79 25.899 28.08 40.256 42.765 27.185 27.802 56.256 55.726 85.32 82.44a2339.29 2339.29 0 0 0 28.104 25.427c5.114 4.548 8.787 7.772 10.781 9.501l7.042 6.108H542.147v-49.951h-174.83l16.364 6.107a1209.05 1209.05 0 0 1-10.31-9.088 2289.562 2289.562 0 0 1-27.5-24.882c-28.456-26.153-56.906-53.48-83.407-80.584-13.906-14.222-26.916-28.024-38.866-41.283-26.12-28.983-46.534-54.666-59.945-75.9-18.835-29.822-47.08-87.528-60.534-131.044-8.358-27.033-11.088-48.202-8.09-60.126 1.89-7.518 5.18-9.56 19.774-7.939l2.758.153h402.004v-49.951zM395.967 858.016v137.366c0 13.794 11.182 24.976 24.976 24.976 13.794 0 24.976-11.182 24.976-24.976V858.016c0-13.793-11.182-24.975-24.976-24.975-13.794 0-24.976 11.182-24.976 24.975zM595.772 858.016v137.366c0 13.794 11.182 24.976 24.976 24.976 13.794 0 24.976-11.182 24.976-24.976V858.016c0-13.793-11.182-24.975-24.976-24.975-13.794 0-24.976 11.182-24.976 24.975z"/></svg><svg class="icon" viewBox="0 0 1024 1024" width="32" height="32" id="electronics" y="352"><defs><style/></defs><path fill="#FF6A00" d="M66.133 153.6h797.988c38.789 0 70.279 31.531 70.279 70.364v539.77l23.467-23.467H159.879c-38.789 0-70.279-31.532-70.279-70.364v-539.77L66.133 153.6zm0-46.933H42.667v563.236c0 64.74 52.489 117.297 117.212 117.297H981.333V223.964c0-64.74-52.489-117.297-117.212-117.297H66.133z"/><path fill="#FF6A00" d="M408.297 766.223l-70.4 164.266c-5.105 11.913.413 25.708 12.326 30.814 11.912 5.105 25.708-.413 30.813-12.326l70.4-164.266c5.105-11.913-.413-25.708-12.325-30.814-11.913-5.105-25.708.413-30.814 12.326zM587.343 848.54l82.134 105.6c7.956 10.23 22.7 12.074 32.93 4.117s12.073-22.7 4.116-32.93l-82.133-105.6c-7.957-10.231-22.7-12.074-32.93-4.117s-12.074 22.7-4.117 32.93z"/><path fill="#FF6A00" d="M242.133 974.933h563.323c12.96 0 23.466-10.506 23.466-23.466S818.416 928 805.456 928H242.133c-12.96 0-23.466 10.506-23.466 23.467 0 12.96 10.506 23.466 23.466 23.466z"/></svg><svg class="icon" viewBox="0 0 1024 1024" width="32" height="32" id="energy" y="384"><defs><style/></defs><path fill="#FF6A00" d="M869.293 969.152v36.576q0 7.424-5.44 12.864t-12.864 5.44h-768q-7.424 0-12.864-5.44t-5.44-12.864v-36.576q0-7.424 5.44-12.864t12.864-5.44h768q7.424 0 12.864 5.44t5.44 12.864zM722.989 365.728q0 44.576-14.016 82.272t-36.576 64.288-50.016 50.272-54.848 44.288T517.517 648t-36.576 46.56-14.016 55.136q0 54.848 38.272 128l-2.272-.576.576.576q-51.424-23.424-91.424-47.424T332.94 773.12t-64.864-70.016-41.44-86.016-15.712-105.152q0-44.576 14.016-82.272t36.576-64.288 50.016-50.272 54.848-44.288 50.016-41.152 36.576-46.56 14.016-55.136q0-53.728-37.728-128l1.728.576-.576-.576q51.424 23.424 91.424 47.424t79.136 57.152 64.864 70.016 41.44 86.016 15.712 105.152z"/></svg><svg class="icon" viewBox="0 0 1024 1024" width="32" height="32" id="flash" y="416"><defs><style/></defs><path fill="#FF6A00" d="M413.867 983.467c-2.134 0-6.4 0-8.534-2.134-8.533-4.266-14.933-14.933-10.666-25.6l93.866-343.466-206.933-2.134c-6.4 0-12.8-2.133-17.067-8.533-4.266-4.267-6.4-10.667-4.266-17.067L366.933 96c2.134-10.667 10.667-17.067 21.334-17.067h345.6c8.533 0 14.933 4.267 19.2 10.667 4.266 6.4 4.266 14.933 0 21.333L556.8 411.733l249.6-4.266c8.533 0 14.933 4.266 19.2 10.666 4.267 6.4 2.133 14.934-2.133 23.467L691.2 622.933c-6.4 8.534-21.333 10.667-29.867 4.267-8.533-6.4-10.666-21.333-4.266-29.867l106.666-145.066-245.333 4.266c-8.533 0-14.933-4.266-19.2-10.666-4.267-6.4-4.267-14.934 0-21.334l198.4-300.8H405.333L307.2 569.6l209.067 2.133c6.4 0 12.8 2.134 17.066 8.534 4.267 4.266 4.267 12.8 4.267 19.2l-70.4 256 72.533-102.4c6.4-8.534 19.2-12.8 29.867-4.267s10.667 19.2 4.267 29.867l-142.934 198.4c-4.266 2.133-10.666 6.4-17.066 6.4z" /><path fill="#FF6A00" d="M616.533 723.2c-17.066 0-32-14.933-32-32s14.934-32 32-32 32 14.933 32 32-14.933 32-32 32z" /></svg><svg class="icon" viewBox="0 0 1024 1024" width="32" height="32" id="food" y="448"><defs><style/></defs><path fill="#FF6A00" d="M1007.66 589.519c-9.025 0-16.34 7.316-16.34 16.34v49.022H32.68v-49.022c0-9.024-7.315-16.34-16.34-16.34S0 596.835 0 605.859v399.005c0 9.025 7.316 16.34 16.34 16.34h991.32c9.024 0 16.34-7.315 16.34-16.34V605.86c0-9.024-7.316-16.34-16.34-16.34zm-16.34 130.723H147.063c-9.024 0-16.34 7.317-16.34 16.34s7.316 16.341 16.34 16.341h844.255v235.6H32.681v-235.6h49.021c9.024 0 16.34-7.316 16.34-16.34s-7.316-16.34-16.34-16.34H32.681v-32.681h958.638v32.68z"/><path fill="#FF6A00" d="M412.389 618.52a16.268 16.268 0 0 0 10.323 3.682c4.738 0 9.438-2.05 12.667-6.007l181.17-221.935c5.705-6.99 4.666-17.284-2.325-22.992-6.99-5.707-17.284-4.667-22.993 2.324l-181.17 221.936c-5.703 6.99-4.664 17.284 2.328 22.992zM492.856 595.528c-5.707 6.99-4.667 17.284 2.324 22.992a16.268 16.268 0 0 0 10.323 3.682c4.739 0 9.438-2.05 12.667-6.007 0 0 178.627-218.824 181.137-221.896.009-.013.02-.024.03-.037a48.134 48.134 0 0 1 3.208-3.55c18.203-18.2 47.823-18.2 66.026 0l45.054 45.054c18.203 18.204 18.203 47.823 0 66.029A47.946 47.946 0 0 1 810.08 505l-108.052 88.203c-6.991 5.708-8.033 16-2.324 22.992a16.31 16.31 0 0 0 12.667 6.007c3.632 0 7.29-1.205 10.322-3.682l108.054-88.206a80.536 80.536 0 0 0 5.985-5.412c26.873-26.874 30.396-68.377 10.595-99.101 44.252-39.326 100.633-60.834 160.33-60.834 9.025 0 16.34-7.316 16.34-16.34s-7.315-16.341-16.34-16.341c-66.128 0-128.682 23.242-178.346 65.847l137.785-137.782c6.382-6.382 6.382-16.726 0-23.108-6.381-6.381-16.728-6.381-23.107 0L806.215 375.017c42.6-49.664 65.839-112.21 65.839-178.335 0-9.024-7.317-16.34-16.34-16.34s-16.341 7.316-16.341 16.34c0 59.695-21.509 116.078-60.835 160.33-30.724-19.802-72.229-16.28-99.1 10.593a80.536 80.536 0 0 0-5.413 5.985l.042.033c-.73.815-1.412 1.649-2.077 2.462L492.856 595.528zM81.652 622.2c9.024 0 16.34-7.316 16.34-16.34V209.884h231.97V605.86c0 9.025 7.315 16.34 16.34 16.34s16.34-7.315 16.34-16.34V198.776l61.466-86.147 46.076 64.573h-43.59c-9.024 0-16.34 7.316-16.34 16.34s7.316 16.341 16.34 16.341h58.98v195.604c0 9.024 7.316 16.34 16.34 16.34s16.341-7.316 16.341-16.34V193.545a16.34 16.34 0 0 0-3.04-9.49L440.45 79.265v-60.13c0-9.025-7.317-16.34-16.34-16.34h-264.65c-9.025 0-16.34 7.315-16.34 16.34v60.128l-74.77 104.79a16.34 16.34 0 0 0-3.04 9.49V605.86c.003 9.025 7.317 16.34 16.343 16.34zm94.147-586.724h231.969v32.681H175.799v-32.68zm-7.926 65.362h224.502l-54.49 76.366H113.383l54.49-76.366zM942.298 622.202c9.024 0 16.34-7.316 16.34-16.34V578.71c0-33.979-21.475-64.777-53.44-76.638-8.464-3.138-17.865 1.174-21.005 9.634-3.139 8.462 1.175 17.865 9.635 21.005 19.216 7.13 32.13 25.615 32.13 46v27.15c0 9.025 7.316 16.341 16.34 16.341z"/></svg><svg class="icon" viewBox="0 0 1024 1024" width="32" height="32" id="furniture" y="480"><defs><style/></defs><path fill="#FF6A00" d="M855.467 413.867C849.067 230.4 699.733 85.333 514.133 85.333c-183.466 0-332.8 145.067-341.333 328.534-51.2 14.933-87.467 64-87.467 119.466 0 64 46.934 115.2 106.667 125.867v106.667c0 59.733 46.933 106.666 106.667 106.666V915.2c0 12.8 8.533 21.333 21.333 21.333S341.333 928 341.333 915.2v-42.667h341.334V915.2c0 12.8 8.533 21.333 21.333 21.333S725.333 928 725.333 915.2v-42.667h19.2c59.734 0 106.667-49.066 106.667-106.666V652.8c51.2-17.067 87.467-66.133 87.467-121.6 0-51.2-34.134-98.133-83.2-117.333zM514.133 128c157.867 0 288 123.733 298.667 279.467-70.4 0-125.867 55.466-128 125.866v192H341.333v-192c0-68.266-55.466-125.866-123.733-128C226.133 251.733 356.267 128 514.133 128zm313.6 490.667c-6.4 2.133-12.8 6.4-14.933 10.666 0 4.267-2.133 6.4-2.133 10.667v128c0 36.267-29.867 64-64 64h-448c-36.267 0-64-29.867-64-64V640c0-12.8-8.534-21.333-21.334-21.333-46.933 0-85.333-38.4-85.333-85.334S166.4 448 213.333 448s85.334 38.4 85.334 85.333v213.334c0 12.8 8.533 21.333 21.333 21.333h384c12.8 0 21.333-8.533 21.333-21.333V533.333c0-46.933 38.4-85.333 85.334-85.333S896 486.4 896 533.333c0 40.534-27.733 76.8-68.267 85.334z"/><path fill="#FF6A00" d="M407.467 661.333H620.8c12.8 0 21.333-8.533 21.333-21.333s-8.533-21.333-21.333-21.333H407.467c-12.8 0-21.334 8.533-21.334 21.333s8.534 21.333 21.334 21.333z"/></svg><svg class="icon" viewBox="0 0 1024 1024" width="32" height="32" id="gear" y="512"><defs><style/></defs><path fill="#FF6A00" d="M511.92 350.016c-89.408 0-161.952 72.544-161.952 162.016 0 89.376 72.544 162.048 161.952 162.048s161.44-72.672 161.44-162.048c0-89.472-72-162.016-161.44-162.016zm324.704 255.04L807.44 675.36l58.944 115.744-72.192 72.192L675.76 807.36l-70.304 28.864-35.68 109.248-4.576 14.496H463.184l-44.16-123.328-70.304-28.992-115.904 58.688-72.16-72.128 55.872-118.496-28.96-70.24-123.52-40.32V463.168l123.392-44.224 28.96-70.176-51.904-102.464-6.848-13.44 72.064-72.064 118.592 55.84 70.208-29.024L454.16 78.432l4.608-14.464h102.016l44.192 123.456 70.112 29.024 116.064-58.816 72.128 72.064-55.872 118.4 28.864 70.336 123.744 40.256V560.64l-123.36 44.384z"/></svg><svg class="icon" viewBox="0 0 1024 1024" width="32" height="32" id="gifts" y="544"><defs><style/></defs><path fill="#FF6A00" d="M151.318 556.317v327.59c0 36.123 29.317 65.511 65.311 65.511h568.014c36.094 0 65.311-29.18 65.311-65.316V567.07h-43.659v317.032a21.6 21.6 0 0 1-21.652 21.657H216.629c-11.858 0-21.652-9.818-21.652-21.852v-327.59h-43.66z"/><path fill="#FF6A00" d="M544.248 927.256v-622.14H500.59v622.14h43.66z"/><path fill="#FF6A00" d="M85.83 326.946h742.314c36.097 0 65.375 29.333 65.375 65.54V545.24l21.83-21.83H173.035c-36.098 0-65.376-29.332-65.376-65.54V305.117l-21.83 21.83zm0-43.66H64V457.872c0 60.301 48.807 109.199 109.035 109.199h764.144V392.486c0-60.301-48.807-109.2-109.035-109.2H85.829z"/><path fill="#FF6A00" d="M456.93 261.457h130.977l-21.83-21.83v65.49l21.83-21.83H456.93l21.83 21.83v-65.49l-21.83 21.83zm0-43.659H435.1v109.148h174.637V217.798H456.93z"/><path fill="#FF6A00" d="M551.66 251.487c.894-1.38 2.627-4.027 5.104-7.758a1635.15 1635.15 0 0 1 14.01-20.741c14.726-21.458 30.12-42.909 45.388-62.875 8.148-10.655 16.05-20.605 23.629-29.715 28.032-33.696 51.623-54.491 57.263-54.491 34.025 0 93.806 37.757 124.428 78.586 5.086 6.78 2.244 25.783-10.433 52.506-5.168 10.893-.527 23.912 10.366 29.08 10.892 5.167 23.911.526 29.079-10.367 19.113-40.288 24.04-73.247 5.915-97.414-38.14-50.855-109.7-96.05-159.355-96.05-25.015 0-52.713 24.415-90.826 70.228-7.984 9.597-16.253 20.01-24.747 31.116-15.77 20.623-31.585 42.66-46.704 64.692a1678.656 1678.656 0 0 0-14.386 21.298 910.173 910.173 0 0 0-5.385 8.187c-6.55 10.122-3.653 23.637 6.468 30.186 10.122 6.55 23.637 3.654 30.187-6.468z"/><path fill="#FF6A00" d="M537.989 227.769c-.983-1.52-2.81-4.309-5.385-8.187a1678.636 1678.636 0 0 0-14.386-21.298c-15.119-22.031-30.934-44.069-46.704-64.692-8.494-11.107-16.763-21.519-24.747-31.116-38.113-45.813-65.81-70.228-90.826-70.228-49.656 0-121.214 45.195-159.355 96.05-17.973 23.964-13.26 56.595 5.447 96.423 6.238 13.28 14 27.135 22.95 41.34 8.218 13.046 16.99 25.69 25.765 37.48 5.287 7.106 9.438 12.396 11.894 15.399l33.79-27.647c-2.053-2.51-5.796-7.28-10.658-13.814-8.141-10.941-16.284-22.677-23.852-34.69-8.057-12.79-14.967-25.123-20.372-36.63-12.36-26.316-15.056-44.974-10.037-51.666 30.622-40.83 90.403-78.586 124.428-78.586 5.64 0 29.23 20.795 57.263 54.49 7.58 9.111 15.48 19.061 23.629 29.716 15.268 19.966 30.662 41.417 45.388 62.875 5.157 7.514 9.86 14.489 14.01 20.74a871.413 871.413 0 0 1 5.103 7.759l36.655-23.718z"/></svg><svg class="icon" viewBox="0 0 1024 1024" width="32" height="32" id="hardware" y="576"><defs><style/></defs><path fill="#FF6A00" d="M789.32 597.33h106.661v106.66h-106.66zm-298.653 0h106.661v106.66h-106.66zm149.327 0h106.661v106.66h-106.66z"/><path fill="#FF6A00" d="M802.101 164.457a42.666 42.666 0 0 0-32.57-15.106H254.468a42.663 42.663 0 0 0-32.57 15.106L.025 426.67v405.314c0 23.562 19.102 42.664 42.664 42.664h938.622c23.562 0 42.664-19.102 42.664-42.664V426.67L802.101 164.457zm-537.74 48.89h495.277l180.504 213.324H83.858l180.504-213.324zm695.617 597.305H64.02V490.667h895.957v319.985z"/></svg><svg class="icon" viewBox="0 0 1026 1024" width="32" height="32" id="health" y="608"><defs><style/></defs><path fill="#FF6A00" d="M972.8 215.04C901.12 133.12 824.32 92.16 742.4 92.16h-2.56c-107.52 0-192 71.68-225.28 104.96C481.28 163.84 396.8 92.16 289.28 92.16h-2.56c-81.92 0-161.28 40.96-230.4 122.88C12.8 263.68-2.56 320 7.68 384c35.84 250.88 473.6 529.92 491.52 542.72 5.12 2.56 7.68 5.12 12.8 5.12h7.68c5.12 0 10.24-2.56 12.8-5.12C550.4 913.92 988.16 637.44 1024 384c7.68-61.44-10.24-120.32-51.2-168.96zM512 875.52c-38.4-25.6-168.96-115.2-281.6-225.28h79.36c10.24 0 20.48-5.12 23.04-15.36l87.04-202.24 115.2 291.84c5.12 10.24 12.8 15.36 23.04 15.36 10.24 0 20.48-7.68 23.04-17.92l51.2-148.48 38.4 69.12c5.12 7.68 12.8 12.8 23.04 12.8h92.16C675.84 765.44 547.84 852.48 512 875.52zm458.24-496.64c-10.24 74.24-64 153.6-133.12 227.84h-128L650.24 499.2c-5.12-7.68-15.36-12.8-25.6-12.8-10.24 0-17.92 7.68-23.04 17.92l-48.64 138.24L445.44 358.4c-5.12-10.24-12.8-15.36-23.04-15.36-10.24 0-20.48 5.12-23.04 15.36L294.4 601.6H181.76C115.2 529.92 64 450.56 53.76 378.88c-7.68-48.64 5.12-92.16 38.4-128 58.88-71.68 125.44-107.52 192-107.52h2.56c115.2 0 202.24 102.4 204.8 104.96 5.12 5.12 12.8 10.24 20.48 10.24h7.68c7.68 0 15.36-2.56 20.48-10.24 0 0 87.04-102.4 204.8-104.96h2.56c66.56 0 133.12 35.84 192 104.96 25.6 38.4 38.4 79.36 30.72 130.56z"/></svg><svg class="icon" viewBox="0 0 1024 1024" width="32" height="32" id="home" y="640"><defs><style/></defs><path fill="#FF6A00" d="M992.335 448c-6.4 0-12.8-1.6-19.2-6.4L512.335 104l-460.8 337.6c-14.4 11.2-33.6 8-44.8-6.4-11.2-14.4-8-33.6 6.4-44.8l480-352c11.2-8 27.2-8 38.4 0l480 352c14.4 11.2 17.6 30.4 6.4 44.8-6.4 8-16 12.8-25.6 12.8z"/><path fill="#FF6A00" d="M832.335 960h-192c-17.6 0-32-14.4-32-32V576h-192v352c0 17.6-14.4 32-32 32h-192c-52.8 0-96-43.2-96-96V480c0-17.6 14.4-32 32-32s32 14.4 32 32v384c0 17.6 14.4 32 32 32h160V544c0-17.6 14.4-32 32-32h256c17.6 0 32 14.4 32 32v352h160c17.6 0 32-14.4 32-32V480c0-17.6 14.4-32 32-32s32 14.4 32 32v384c0 52.8-43.2 96-96 96z"/></svg><svg class="icon" viewBox="0 0 1024 1024" width="32" height="32" id="inventory" y="672"><defs><style/></defs><path fill="#FF6A00" d="M1011.551 375.31L538.171 36.924c-3.35-3.409-8.383-6.832-11.747-8.544-13.444-8.543-33.573-3.408-43.652 11.967L12.742 377.022c-15.097 10.255-16.78 32.461-5.033 49.562 11.747 17.071 33.573 22.22 47.002 11.951l31.89-23.917v555.446c0 20.495 16.78 37.596 36.923 37.596s36.922-17.1 36.922-37.596V361.648L512.98 110.402l355.884 254.654v603.282c0 20.524 16.779 37.61 36.923 37.61s36.922-17.086 36.922-37.61V419.752l25.19 17.086c15.112 10.255 35.27 5.12 47.002-11.966 11.761-17.086 10.094-39.307-3.35-49.561M341.767 888.042h-60.43c-23.494 0-28.54 5.12-28.54 29.038v63.24c0 23.917 5.046 29.037 28.54 29.037h60.43c23.494 0 28.526-5.135 28.526-29.038v-63.24c-1.668-23.917-6.7-29.037-28.526-29.037m0-206.804h-60.43c-23.494 0-28.54 5.12-28.54 29.038v61.527c0 23.933 5.046 29.038 28.54 29.038h60.43c23.494 0 28.526-5.12 28.526-29.038v-63.239c-1.668-22.206-6.7-27.326-28.526-27.326m201.436 206.804h-60.43c-23.509 0-28.527 5.12-28.527 29.038v63.24c0 23.917 5.018 29.037 28.526 29.037h60.43c23.509 0 28.541-5.135 28.541-29.038v-63.24c-1.653-23.917-6.714-29.037-28.54-29.037m201.45 0h-60.445c-23.494 0-28.526 5.12-28.526 29.038v63.24c0 23.917 5.032 29.037 28.526 29.037h60.445c23.493 0 28.51-5.135 28.51-29.038v-63.24c-1.667-23.917-6.684-29.037-28.51-29.037m-201.45-206.804h-60.43c-23.509 0-28.527 5.12-28.527 29.038v61.527c0 23.933 5.018 29.038 28.526 29.038h60.43c23.509 0 28.541-5.12 28.541-29.038v-63.239c-1.653-22.206-6.714-27.326-28.54-27.326M341.767 474.434h-60.43c-23.494 0-28.54 5.15-28.54 29.067v63.224c0 23.933 5.046 29.053 28.54 29.053h60.43c23.494 0 28.526-5.135 28.526-29.053v-63.224c-1.668-25.63-6.7-29.067-28.526-29.067m191.371 133.325z"/></svg><svg class="icon" viewBox="0 0 1028 1024" width="32" height="32" id="jewelry" y="704"><defs><style/></defs><path fill="#FF6A00" d="M793.353 127.013a24.3 24.3 0 0 0-19.332-9.577h-298.96c-8.83 0 7.116 44.368 8.83 51.925.526 2.318 19.612-2.23 20.898 0l162.03 264.52-1.653-20.814L478.58 901.573c-1.857 4.86-3.067 9.245-3.518 13.507-1.09 10.286 1.37 20.2 12.65 26.848 10.899 6.422 20.395 4.126 28.887-1.318 3.571-2.289 6.95-5.303 10.472-9.09l419.87-406.446c9.642-9.334 9.891-24.718.556-34.36s-24.718-9.892-34.36-.557L492.37 897.515c7.802-8.44 36.538 8.493 31.609 21.399l186.587-488.506a24.3 24.3 0 0 0-1.652-20.814l-161.54-280.001-21.048 36.443h247.694l-19.332-9.577 204.617 268.68c8.13 10.677 23.377 12.74 34.054 4.61 10.677-8.132 12.74-23.379 4.61-34.056l-204.617-268.68z"/><path fill="#FF6A00" d="M773.224 175.24l-96.923 226.156-14.517 33.872H990.788v-48.6H698.636l22.335 33.873 96.924-226.156-44.67-19.144zM451.432 129.593L289.893 409.594l-5.605 9.715 3.757 10.568 173.537 488.172c-4.408-12.401 24.038-29.206 32.657-19.664L48.972 405.45l1.947 30.12 193.847-280.001-19.98 10.468h247.695l-21.049-36.443zm42.097 24.286l21.025-36.443H212.055l-7.247 10.468L10.96 407.906 0 423.737l12.907 14.29 445.267 492.935c3.526 3.904 6.914 7.006 10.519 9.366 8.505 5.57 18.172 7.931 29.141 1.451 11.031-6.516 13.607-16.202 12.76-26.366-.357-4.287-1.47-8.723-3.22-13.642L333.839 413.598l-1.848 20.283 161.539-280.002z"/><path fill="#FF6A00" d="M191.682 194.385l96.924 226.156 22.335-33.873H52.478v48.6h295.315l-14.517-33.872-96.923-226.155-44.67 19.144z"/><path fill="#FF6A00" d="M310.389 422.566h656.099c13.42 0 24.3-10.88 24.3-24.3s-10.88-24.3-24.3-24.3H310.389c-13.42 0-24.3 10.88-24.3 24.3s10.88 24.3 24.3 24.3z"/></svg><svg class="icon" viewBox="0 0 1024 1024" width="32" height="32" id="kitchen" y="736"><defs><style/></defs><path fill="#FF6A00" d="M342.016 512h84.01v214.016h-84.01V512zm0-297.984h84.01v128h-84.01v-128zM768 384V169.984H256V384h512zm0 470.016V468.011H256v386.005h512zm0-768q36.01 0 61.013 24.021t25.003 59.99v683.989q0 34.005-25.984 59.008t-59.99 25.003h-512q-34.005 0-59.989-25.003t-25.984-59.008v-683.99q0-36.01 25.003-59.989t61.013-24.021h512z"/></svg><svg class="icon" viewBox="0 0 1024 1024" width="32" height="32" id="lights" y="768"><defs><style/></defs><path fill="#FF6A00" d="M679.665 962.873c-4.252.129-12.066.354-22.73.644-17.78.485-36.984.969-56.898 1.42-25.597.581-50.478 1.065-73.928 1.42-43.066.65-78.926.832-105.085.436-14.58-.22-25.874-.62-33.4-1.188-3.4-.257-5.822-.538-6.896-.75.466.092 1.162.285 2.53.885 7.477 3.28 13.75 9.067 13.75 21.577v-93.213-77.425-41.321c0-7.057-3.048-13.77-8.362-18.414-1.55-1.355-4.602-4.096-8.941-8.11-7.316-6.77-15.49-14.59-24.304-23.35-25.21-25.052-50.423-52.523-73.902-81.478-43.472-53.613-75.805-105.943-92.393-153.953-8.059-23.326-12.195-45.142-12.195-65.207 0-195.842 158.76-354.602 354.601-354.602s354.602 158.76 354.602 354.602c0 18.009-3.648 37.389-10.798 57.985-17.368 50.036-54.372 104.895-105.158 161.027-26.096 28.843-54.126 56.145-82.154 80.994-9.803 8.692-18.894 16.446-27.032 23.152-4.83 3.981-8.232 6.699-9.963 8.045a24.455 24.455 0 0 0-9.448 19.309v114.138l24.455-24.455H384.78c-13.506 0-24.455 10.949-24.455 24.455 0 13.506 10.95 24.455 24.455 24.455h281.236c13.507 0 24.456-10.949 24.456-24.455V775.358l-9.448 19.309c2.09-1.625 5.853-4.632 11.053-8.918 8.58-7.07 18.116-15.204 28.374-24.298 29.289-25.967 58.576-54.494 85.976-84.778 54.801-60.57 95.182-120.435 115.095-177.803 8.85-25.495 13.502-50.21 13.502-74.024 0-222.854-180.658-403.513-403.512-403.513C308.66 21.333 128 201.992 128 424.846c0 25.888 5.14 52.997 14.877 81.179 18.752 54.275 53.88 111.13 100.632 168.786 24.668 30.422 51.04 59.155 77.416 85.366 9.24 9.182 17.831 17.404 25.561 24.556 4.689 4.338 8.084 7.387 9.974 9.038l-8.362-18.413v211.959c0 13.088 6.864 19.421 15.515 23.215 2.524 1.107 4.94 1.777 7.68 2.315 3.36.661 7.476 1.138 12.644 1.53 8.71.658 20.865 1.087 36.348 1.32 26.754.406 63.046.223 106.564-.436 23.583-.356 48.585-.842 74.297-1.426 19.992-.453 39.27-.94 57.12-1.425 10.715-.292 18.579-.519 22.878-.649 13.5-.408 24.113-11.683 23.705-25.183-.409-13.5-11.684-24.113-25.184-23.705z"/><path fill="#FF6A00" d="M379.716 552.187l122.276 122.276c9.197 9.197 23.984 9.586 33.652.885L657.921 565.3c10.039-9.035 10.853-24.498 1.817-34.537-9.035-10.039-24.498-10.853-34.537-1.818l-122.276 110.05 33.652.884-122.276-122.276c-9.55-9.55-25.035-9.55-34.585 0s-9.55 25.034 0 34.585z"/><path fill="#FF6A00" d="M494.83 669.398v207.87h48.91v-207.87h-48.91z"/></svg><svg class="icon" viewBox="0 0 1024 1024" width="32" height="32" id="luggage" y="800"><defs><style/></defs><path fill="#FF6A00" d="M896 256H640v-96c0-19.2-16-32-32-32H416c-19.2 0-32 16-32 32v96H128c-35.2 0-64 28.8-64 64v512c0 35.2 28.8 64 64 64h768c35.2 0 64-28.8 64-64V320c0-35.2-28.8-64-64-64zm-480-96h192v96H416v-96zM224 864h-96c-16 0-32-12.8-32-32V320c0-19.2 12.8-32 32-32h96v576zm544 0H256V288h512v576zm160-32c0 16-12.8 32-32 32h-96V288h96c19.2 0 32 16 32 32v512z"/></svg><svg class="icon" viewBox="0 0 1024 1024" width="32" height="32" id="machinery" y="832"><defs><style/></defs><path fill="#FF6A00" d="M1013.343 771.306l4.084-256.828.312-19.603-18.794-5.05-87.037-23.388 18.486 24.251V96.872l-24.637-.262-354.29-3.762-20.241-.215-4.341 19.929-71.865 329.916 24.32-19.716H360.48l-5.883 16.7L213.53 839.897l-11.8 33.496H404.8c13.751 0 24.9-11.237 24.9-25.098 0-13.861-11.149-25.098-24.9-25.098H236.995l23.464 33.496 141.066-400.434-23.465 16.7h121.306l4.294-19.716 71.866-329.916-24.583 19.714 354.289 3.763-24.637-25.097v388.265l18.485 4.967 87.037 23.388-18.483-24.654-4.084 256.829c-.22 13.86 10.747 25.275 24.497 25.497 13.75.222 25.075-10.833 25.296-24.693z"/><path fill="#FF6A00" d="M488.657 938.667c61.882 0 112.048-50.566 112.048-112.942 0-62.375-50.166-112.94-112.048-112.94-61.883 0-112.05 50.565-112.05 112.94 0 62.376 50.167 112.942 112.05 112.942zm0-50.196c-34.38 0-62.25-28.092-62.25-62.746 0-34.653 27.87-62.745 62.25-62.745 34.379 0 62.249 28.092 62.249 62.745 0 34.654-27.87 62.746-62.25 62.746zM787.453 938.667c61.883 0 112.049-50.566 112.049-112.942 0-62.375-50.166-112.94-112.05-112.94-61.882 0-112.048 50.565-112.048 112.94 0 62.376 50.166 112.942 112.049 112.942zm0-50.196c-34.38 0-62.25-28.092-62.25-62.746 0-34.653 27.87-62.745 62.25-62.745 34.38 0 62.25 28.092 62.25 62.745 0 34.654-27.87 62.746-62.25 62.746zM363.387 108.044L107.606 817.762l27.575-16.174-104.45-17.893c-13.557-2.322-26.416 6.873-28.72 20.538C-.293 817.9 8.83 830.86 22.387 833.182l104.45 17.893 20.482 3.508 7.093-19.682 255.782-709.718c4.695-13.029-1.976-27.427-14.902-32.16-12.925-4.732-27.21 1.992-31.905 15.02zM584.133 467.052h263.483l-.988-23.38-9.721-229.921-.92-21.751-21.597.282-188.328 2.462-18.228.238-3.352 18.062-42.218 227.459-4.928 26.55h26.797zm0-44.85L606 448.75l42.218-227.46-21.58 18.3 188.328-2.462-22.516-21.468 9.72 229.92 22.229-23.38H584.133z"/><path fill="#FF6A00" d="M282.68 692.069l-93.38-27.52-13.975 48.178 93.379 27.52 13.975-48.178zM591.36 863.373h122.777v-50.197H591.361v50.197z"/></svg><svg class="icon" viewBox="0 0 1024 1024" width="32" height="32" id="mobile" y="864"><defs><style/></defs><path fill="#FF6A00" d="M849.524 974.049H296.52c-41.723 0-75.568-33.512-75.568-74.687V24.976L195.81 49.95h553.004c41.704 0 75.567 33.644 75.567 75.026V877.1c0 13.794 11.257 24.976 25.143 24.976 13.886 0 25.143-11.182 25.143-24.976V124.977C874.667 56.01 818.292 0 748.814 0H170.667v899.362C170.667 968.16 227.06 1024 296.52 1024h553.004c13.886 0 25.143-11.182 25.143-24.976 0-13.793-11.257-24.975-25.143-24.975z"/><path fill="#FF6A00" d="M325.489 178.21c0-13.09 10.708-23.708 23.96-23.708h337.325c13.157 0 23.96 10.74 23.96 23.708v574.442c0 13.09-10.709 23.708-23.96 23.708H349.448c-13.157 0-23.96-10.74-23.96-23.708V178.21zm-48.156 0v574.442c0 39.375 32.352 71.543 72.115 71.543h337.326c39.828 0 72.115-32.017 72.115-71.543V178.21c0-39.376-32.352-71.543-72.115-71.543H349.448c-39.828 0-72.115 32.017-72.115 71.543zM522.667 949.073c27.772 0 50.285-22.364 50.285-49.951s-22.513-49.951-50.285-49.951c-27.772 0-50.286 22.364-50.286 49.951s22.514 49.951 50.286 49.951zm0-49.951z"/></svg><svg class="icon" viewBox="0 0 1024 1024" width="32" height="32" id="office" y="896"><defs><style/></defs><path fill="#FF6A00" d="M335.282 183.505c64.305-.956 107.497 15.612 134.901 43.124 8.944 8.98 15.508 18.514 20.059 27.928 2.554 5.283 3.807 9.004 4.117 10.369l-.635-5.667V699.1c0-2.117 2.092-7.02 9.868-10.463 7.447-3.299 12.092-1.801 13.585-.543l-16.505 19.57 20.625-15.164c-7.157-9.735-21.666-22.214-45.163-33.858-36.556-18.116-85.274-28.746-147.642-28.746-62.631 0-109.067 10.387-141.665 28.363-21.85 12.05-34.289 25.46-39.607 36.433l23.037 11.165-19.221-16.908c1.848-2.101 7.271-4.751 16.813-.998 9.243 3.635 11.351 8.85 11.351 11.386V259.26l-3.383 12.717c1.262-2.204 4.272-6.785 9.012-12.943 8.125-10.556 17.964-21.161 29.469-31.042 33.228-28.537 73.084-45.201 120.216-44.488h.768zm.007-51.195c-60.628-.917-112.208 20.65-154.349 56.84-24.613 21.137-40.964 42.38-49.557 57.391l-3.383 5.91v446.885c0 37.403 36.543 51.776 61.479 23.429l2.298-2.613 1.517-3.13c.784-1.619 5.862-7.093 18.258-13.93 24.479-13.498 62.473-21.997 116.94-21.997 54.73 0 95.672 8.933 124.907 23.421 15.978 7.919 24.216 15.003 26.647 18.31l1.799 2.447 2.322 1.958c27.113 22.868 60.757 7.968 60.757-28.131V259.26l-.635-5.668c-3.862-17.011-15.113-40.29-37.83-63.096-37.471-37.617-94.107-59.342-171.937-58.186h.767z"/><path fill="#FF6A00" d="M0 389.973v478.17c0 36.733 34.793 51.257 61.464 26.608l1.998-2.067c1.84-2.129 6.194-6.546 13.036-12.504 11.808-10.282 26.068-20.643 42.753-30.354 48.045-27.964 105.658-44.776 173.086-44.776 66.042 0 117.122 19.28 155.788 51.302 13.381 11.082 24.256 22.913 32.788 34.651 4.92 6.768 7.85 11.739 8.96 14.02 6.186 12.713 21.507 18.004 34.22 11.818 12.713-6.186 18.005-21.507 11.819-34.22-8.441-17.347-26.134-41.689-55.13-65.702-47.648-39.46-110.195-63.07-188.445-63.07-76.862 0-143.262 19.377-198.841 51.726-33.735 19.635-56.624 39.565-68.782 53.643l19.374 16.733-17.375-18.8c1.45-1.34 6.164-3.097 14.08.207C49.035 860.8 51.2 865.87 51.2 868.143v-478.17c0-14.138-11.462-25.6-25.6-25.6-14.138 0-25.6 11.462-25.6 25.6zM696.802 132.31c-77.83-1.156-134.466 20.569-171.936 58.186-22.718 22.807-33.97 46.085-37.83 63.096l-.636 5.667V699.1c0 36.1 33.644 51 60.757 28.132l2.322-1.958 1.799-2.447c2.431-3.307 10.669-10.391 26.646-18.31 29.236-14.488 70.178-23.421 124.908-23.421 54.467 0 92.461 8.499 116.94 21.998 12.395 6.836 17.473 12.31 18.258 13.928l1.517 3.131 2.298 2.613c24.936 28.347 61.479 13.974 61.479-23.43V252.45l-3.383-5.909c-8.593-15.011-24.944-36.254-49.557-57.391-42.142-36.19-93.721-57.757-154.35-56.84h.768zm.007 51.194c47.133-.713 86.988 15.951 120.217 44.488 11.505 9.88 21.343 20.486 29.469 31.042 4.74 6.158 7.75 10.74 9.011 12.943l-3.382-12.718v440.077c0-2.536 2.108-7.751 11.35-11.386 9.542-3.753 14.966-1.103 16.814.998l-19.221 16.908 23.036-11.165c-5.317-10.972-17.757-24.383-39.606-36.433-32.598-17.976-79.034-28.363-141.665-28.363-62.369 0-111.086 10.63-147.642 28.746-23.498 11.644-38.006 24.123-45.163 33.858l20.625 15.163-16.505-19.569c1.492-1.258 6.138-2.756 13.585.543 7.776 3.443 9.868 8.346 9.868 10.464V259.26l-.635 5.666c.31-1.365 1.563-5.086 4.117-10.369 4.55-9.414 11.114-18.949 20.058-27.928 27.405-27.512 70.596-44.08 134.901-43.124h.768z"/><path fill="#FF6A00" d="M972.8 389.973v478.17c0-2.273 2.165-7.344 10.407-10.785 7.916-3.304 12.63-1.548 14.08-.207l-17.375 18.8 19.374-16.733c-12.158-14.078-35.047-34.008-68.782-53.643-55.579-32.35-121.979-51.725-198.841-51.725-78.53 0-141.112 24.887-188.535 66.412-28.758 25.18-46.182 50.635-54.423 68.715-5.863 12.865-.187 28.048 12.678 33.912 12.865 5.863 28.048.188 33.912-12.678 1.126-2.47 4.055-7.76 8.962-14.929 8.475-12.38 19.288-24.844 32.6-36.5 38.333-33.565 89.044-53.732 154.806-53.732 67.428 0 125.041 16.812 173.086 44.776 16.685 9.711 30.945 20.072 42.753 30.354 6.842 5.958 11.197 10.375 13.036 12.504l1.998 2.067c26.67 24.65 61.464 10.125 61.464-26.608v-478.17c0-14.138-11.462-25.6-25.6-25.6-14.138 0-25.6 11.462-25.6 25.6z"/></svg><svg class="icon" viewBox="0 0 1024 1024" width="32" height="32" id="pencil" y="928"><defs><style/></defs><path fill="#FF6A00" d="M114.184 936.365a26.843 26.843 0 0 1-18.896-7.837 27.245 27.245 0 0 1-6.784-27.238c.576-1.888 58.076-190.17 69.575-232.604a27.253 27.253 0 0 1 6.99-12.08s509.132-509.337 524.082-524.12a153.538 153.538 0 0 1 102.51-44.84 135.462 135.462 0 0 1 94.697 41.659c32.72 31.427 49.664 65.067 50.336 100.026.517 35.385-15.637 70.37-48.215 103.97-31.517 32.552-506.395 502.146-526.61 522.115a26.813 26.813 0 0 1-11.187 6.622c-31.984 9.532-226.32 72.362-228.285 72.995a26.843 26.843 0 0 1-8.213 1.332zm93.806-246.34c-10.01 35.618-39.822 125.583-56.68 181.065 55.845-17.99 146.817-49.508 177.65-59.014 50.763-50.207 491.568-486.2 521.107-516.633 22.117-22.852 33.24-44.762 32.851-65.119-.401-19.865-11.666-40.687-33.652-61.743a83.683 83.683 0 0 0-57.604-26.732 102.94 102.94 0 0 0-64.9 29.28c-14.098 13.905-465.928 465.947-518.838 518.884l.066.012zM350.359 853.71c-13.574-.065-24.981-10.204-26.63-23.681a160.692 160.692 0 0 0-43.7-81.518 158.794 158.794 0 0 0-84.565-48.086c-14.712-1.9-25.174-15.274-23.48-30.005 1.533-14.705 14.698-25.388 29.397-23.849h.045c88.93 17.848 158.303 87.597 175.66 176.616 1.914 14.796-8.497 28.338-23.28 30.29-1.164.155-2.334.22-3.511.22l.064.013zm478.525-484.571c-13.58-.053-24.988-10.204-26.617-23.681-14.304-64.291-64.2-114.68-128.337-129.604-14.704-1.94-25.129-15.3-23.447-30.032 1.513-14.666 14.628-25.349 29.307-23.849.025.013.064.013.103.013a211.047 211.047 0 0 1 116.684 63.566 213.766 213.766 0 0 1 59.053 112.985c2.018 14.732-8.277 28.311-23.02 30.33a26.55 26.55 0 0 1-3.803.257l.077.015z"/></svg><svg class="icon" viewBox="0 0 1024 1024" width="32" height="32" id="phone" y="960"><defs><style/></defs><path fill="#FF6A00" d="M942.08 738.304c-25.6-23.552-55.296-47.104-76.8-61.44-27.648-19.456-57.344-38.912-84.992-51.2-43.008-21.504-59.392-25.6-70.656-25.6-19.456 0-35.84 10.24-51.2 29.696-8.192 12.288-17.408 29.696-23.552 45.056-4.096 10.24-12.288 27.648-17.408 33.792-8.192-2.048-31.744-12.288-70.656-37.888-35.84-25.6-74.752-57.344-104.448-84.992-29.696-29.696-59.392-68.608-84.992-104.448-25.6-37.888-35.84-61.44-37.888-70.656 6.144-4.096 23.552-12.288 33.792-17.408 15.36-6.144 31.744-12.288 45.056-23.552 21.504-15.36 29.696-31.744 29.696-51.2 0-10.24-2.048-27.648-25.6-70.656-12.288-25.6-31.744-55.296-51.2-84.992-15.36-21.504-38.912-51.2-61.44-76.8-27.648-27.648-47.104-40.96-66.56-40.96-47.104 0-100.352 68.608-114.688 87.04-19.456 25.6-66.56 96.256-66.56 159.744 0 59.392 40.96 138.24 74.752 194.56C161.792 559.104 225.28 640 293.888 710.656l21.504 21.504c70.656 68.608 149.504 132.096 224.256 177.152 23.552 15.36 51.2 29.696 78.848 43.008 4.096 2.048 6.144 2.048 10.24 2.048a27.533 27.533 0 0 0 27.648-27.648c0-10.24-6.144-21.504-17.408-25.6-21.504-10.24-45.056-23.552-70.656-38.912-70.656-43.008-145.408-102.4-212.992-168.96l-21.504-21.504c-66.56-68.608-125.952-143.36-168.96-212.992-43.008-68.608-66.56-128-66.56-163.84 0-31.744 19.456-78.848 53.248-123.904 15.36-19.456 29.696-37.888 45.056-51.2 15.36-13.312 23.552-17.408 27.648-17.408 10.24 4.096 43.008 31.744 87.04 98.304 17.408 25.6 33.792 51.2 45.056 74.752 15.36 27.648 17.408 40.96 17.408 43.008 0 0-4.096 4.096-10.24 8.192-8.192 4.096-21.504 10.24-31.744 15.36-15.36 6.144-27.648 12.288-40.96 19.456-19.456 12.288-27.648 27.648-27.648 45.056 0 8.192 0 33.792 49.152 104.448 25.6 37.888 59.392 80.896 92.16 112.64 31.744 31.744 74.752 66.56 112.64 92.16 70.656 47.104 96.256 49.152 104.448 49.152 17.408 0 31.744-8.192 45.056-27.648 8.192-10.24 12.288-25.6 19.456-40.96 4.096-10.24 10.24-23.552 15.36-31.744 6.144-4.096 10.24-6.144 10.24-6.144 2.048 0 15.36 2.048 43.008 17.408 21.504 12.288 49.152 27.648 74.752 45.056 63.488 45.056 94.208 76.8 98.304 87.04-2.048 4.096-6.144 12.288-17.408 27.648-12.288 15.36-31.744 31.744-51.2 45.056-29.696 21.504-61.44 38.912-87.04 47.104-10.24 4.096-17.408 15.36-17.408 25.6a27.533 27.533 0 0 0 27.648 27.648c2.048 0 4.096 0 6.144-2.048 2.048 0 2.048 0 4.096-2.048 45.056-15.36 82.944-40.96 102.4-55.296 21.504-15.36 87.04-70.656 87.04-115.712 0-20.48-12.288-39.936-39.936-67.584z"/></svg><svg class="icon" viewBox="0 0 1024 1024" width="32" height="32" id="print" y="992"><defs><style/></defs><path fill="#FF6A00" d="M24.381 265.886h877.714c40.334 0 73.143 33.017 73.143 73.6v439.961l24.381-24.455H853.333l24.381 24.455V657.171H146.286v122.276l24.38-24.455h-48.71c-40.365 0-73.194-33.02-73.194-73.6V241.431L24.38 265.886zm0-48.91H0v464.416c0 67.562 54.63 122.51 121.956 122.51h73.092V681.626l-24.381 24.455h682.666l-24.38-24.455v122.276H1024V339.486c0-67.56-54.605-122.51-121.905-122.51H24.38z"/><path fill="#FF6A00" d="M755.81 999.545l24.38-24.456H243.81l24.38 24.456v-223.22c0-13.506-10.915-24.455-24.38-24.455-13.466 0-24.381 10.949-24.381 24.455v223.22c0 13.506 10.915 24.455 24.38 24.455H780.19c13.466 0 24.381-10.949 24.381-24.455v-223.22c0-13.506-10.915-24.455-24.38-24.455-13.466 0-24.381 10.949-24.381 24.455v223.22zM207.238 437.073H524.19v-48.91H207.238v48.91zM219.429 241.43V45.79l-24.381 24.455h633.904l-24.38-24.455V241.43h48.761V21.333H170.667V241.431h48.762z"/></svg><svg class="icon" viewBox="0 0 1024 1024" width="32" height="32" id="security" y="1024"><defs><style/></defs><path fill="#FF6A00" d="M516.267 1024h-8.534c-253.866 0-458.666-204.8-458.666-458.667V119.467c0-12.8 8.533-21.334 21.333-21.334h106.667C264.533 98.133 352 76.8 430.933 38.4l72.534-36.267c6.4-2.133 12.8-2.133 19.2 0L595.2 38.4c78.933 38.4 166.4 59.733 253.867 59.733h106.666c12.8 0 21.334 8.534 21.334 21.334s-8.534 21.333-21.334 21.333H849.067c-93.867 0-187.734-21.333-273.067-64l-64-32-61.867 32c-85.333 42.667-179.2 64-273.066 64H91.733v424.533c0 230.4 185.6 416 416 416h8.534c228.266 0 416-185.6 416-416V266.667l-405.334 390.4c-8.533 8.533-21.333 8.533-29.866 0L296.533 456.533C288 448 288 435.2 296.533 426.667s21.334-8.534 29.867 0l185.6 185.6 426.667-409.6c6.4-6.4 14.933-8.534 23.466-4.267 8.534 4.267 12.8 10.667 12.8 19.2v347.733c0 253.867-204.8 458.667-458.666 458.667z"/></svg><svg class="icon" viewBox="0 0 1024 1024" width="32" height="32" id="service" y="1056"><defs><style/></defs><path fill="#FF6A00" d="M537.677 572.777c129.603 0 234.583-106.004 234.583-236.665 0-130.66-104.98-236.664-234.583-236.664-129.604 0-234.584 106.004-234.584 236.664 0 130.66 104.98 236.665 234.584 236.665zm0-42.472c-106.054 0-192.111-86.897-192.111-194.193 0-107.295 86.057-194.192 192.11-194.192 106.054 0 192.111 86.897 192.111 194.192 0 107.296-86.057 194.193-192.11 194.193z"/><path fill="#FF6A00" d="M1001.664 1024c0-272.569-218.908-493.613-489.048-493.613S23.567 751.431 23.567 1024h42.472c0-249.204 199.986-451.14 446.577-451.14 246.59 0 446.576 201.936 446.576 451.14h42.472zM233.81 572.86c48.036 0 86.894-39.237 86.894-87.535 0-48.298-38.858-87.534-86.894-87.534-48.037 0-86.894 39.236-86.894 87.534 0 48.298 38.857 87.535 86.894 87.535zm0-42.473c-24.487 0-44.422-20.129-44.422-45.062 0-24.933 19.935-45.062 44.422-45.062s44.421 20.13 44.421 45.062c0 24.933-19.934 45.062-44.421 45.062z"/><path fill="#FF6A00" d="M830.543 520.287c7.892-3.074 25.878-8.036 39.195-12.873l2.74-.994c10.822-3.92 22.43-8.067 34.038-12.176 6.966-2.466 12.381-4.37 15.466-5.448l14.224-4.976V269.01l-11.937-5.815c-2.215-1.079-6.125-2.998-11.16-5.497a1913.992 1913.992 0 0 1-24.583-12.404c-1.597-.822-1.597-.822-3.188-1.645-8.843-4.582-16.161-8.51-21.445-11.537-2.732-1.566-4.821-2.835-6.106-3.7 2.101 1.415 2.328 1.606 4.427 6.505C804.258 99.648 670.565 0 531.99 0 337.404 0 179.745 159.197 179.745 355.475c0 23.115 2.189 45.959 6.501 68.31l41.704-8.046c-3.802-19.703-5.733-39.853-5.733-60.264 0-172.913 138.737-313.003 309.773-313.003 120.542 0 239.578 88.724 291.184 209.171 4.108 9.588 7.272 11.4 42.627 29.717 1.645.851 1.645.851 3.292 1.7a1955.196 1955.196 0 0 0 25.137 12.683 1851.28 1851.28 0 0 0 11.44 5.635l-11.936-19.092v186.465l14.225-20.046a4796.927 4796.927 0 0 0-15.614 5.5 5018.451 5018.451 0 0 0-34.334 12.282l-2.772 1.006c-13.599 4.94-24.855 9.125-33.113 12.342-4.84 1.885-8.638 3.432-11.414 4.663-1.809.802-3.278 1.507-4.589 2.237-1.372.77-1.372.77-3.727 2.485-4.48 2.106-14.325 9.831-7.017 23.547 7.308 13.716 30.88 9.19 35.164 7.52z"/></svg><svg class="icon" viewBox="0 0 1229 1024" width="38" height="32" id="shoes" y="1088"><defs><style/></defs><path fill="#FF6A00" d="M1041.843 983.992c-.268-2.867-.747-8.367-1.366-16.136a2420.463 2420.463 0 0 1-3.045-43.309c-3.014-48.95-4.705-98.122-4.39-143.849.554-80.458 7.497-140.865 20.669-168.592.864-1.82 1.783-3.663 2.758-5.533 12.857-24.672 23.073-37.89 72.662-97.413 70.735-84.906 99.669-135.251 99.669-202.052 0-140.676-77.627-297.634-174.51-297.634-26.97 0-33.795 8.272-110.644 113.086-78.092 106.511-115.503 155.386-171.39 220.06a1864.409 1864.409 0 0 1-39.187 43.962C622.284 506.884 444.326 642.066 386.698 660.177c-27.288 8.576-49.447 15.069-70.119 20.686-10.989 2.986-39.743 10.424-42.637 11.2a613.308 613.308 0 0 0-10.977 3.04c-22.03 6.34-42.716 14.021-76.215 28.546-50.33 21.824-106.06 57.678-141.513 93.601-50.847 51.523-63.375 107.044-14.013 148.197l3.02 2.517 3.569 1.651c69.032 31.93 420.206 31.681 539.687 1.871 63.9-15.942 85.9-48.823 103.146-123.015 17.348-74.632 27.35-100.982 61.61-140.114 40.472-46.229 76.38-73.635 106.888-86.67 9.678-4.136 17.76-6.344 24.218-7.167 1.86-.237 3.292-.32 4.295-.309.304.008.304.008.164 0-.154-.013-.154-.013-.42-.04l-.336-.04-.2-.026-.085-.011-.06-.009c16.261 2.306 31.382-9.059 33.699-25.395 2.317-16.336-9.048-31.457-25.385-33.774l-.076-.01-.166-.023-.269-.035c-.288-.035-.288-.035-.608-.071-.687-.072-.687-.072-1.5-.14-1.815-.121-1.815-.121-4.119-.173-3.728-.04-7.898.2-12.488.785-11.97 1.525-25.407 5.197-40.141 11.492C786.424 583.51 743.387 616.358 697.3 669c-42.697 48.77-55.386 82.196-74.853 165.945-12.709 54.676-22.541 69.37-59.41 78.57-107.487 26.816-445.69 27.056-500.14 1.87l6.588 4.17c-15.319-12.771-11.364-30.295 18.28-60.334 29.614-30.007 78.998-61.779 122.755-80.752 31.3-13.572 49.647-20.383 68.97-25.945 3.081-.887 6.303-1.778 9.917-2.746 2.52-.675 31.412-8.15 42.84-11.255 21.427-5.822 44.335-12.534 72.365-21.343 69.658-21.892 255.176-162.817 372.41-290.122a1924.05 1924.05 0 0 0 40.443-45.37c57.263-66.267 95.347-116.021 174.367-223.797 29.063-39.639 42.3-57.247 54.297-71.785 6.718-8.142 12.018-13.942 15.797-17.367.165-.15-.914.486-7.636.486 52.44 0 114.76 126.009 114.76 237.884 0 47.898-23.884 89.456-85.826 163.807-53.142 63.788-64 77.837-79.743 108.046a227.266 227.266 0 0 0-3.74 7.507c-18.214 38.34-25.834 104.631-26.448 193.819-.326 47.253 1.41 97.727 4.502 147.933a2479.901 2479.901 0 0 0 3.12 44.383c.642 8.05 1.144 13.82 1.437 16.95 1.535 16.428 16.097 28.5 32.525 26.965 16.428-1.536 28.501-16.098 26.966-32.526z"/></svg><svg class="icon" viewBox="0 0 1024 1024" width="32" height="32" id="sports" y="1120"><defs><style/></defs><path fill="#FF6A00" d="M89.62 149.372l214.552 202.756a29.257 29.257 0 0 0 20.095 7.993H732.1c16.159 0 29.258-13.099 29.258-29.257s-13.1-29.257-29.258-29.257H324.267l20.095 7.993-214.553-202.757c-11.744-11.098-30.26-10.574-41.359 1.17-11.098 11.743-10.575 30.26 1.17 41.359zM102.353 621.81l214.971 216.696c11.38 11.471 29.905 11.545 41.376.165 11.471-11.38 11.545-29.904.165-41.375L143.895 580.6c-11.38-11.47-29.905-11.545-41.376-.165-11.471 11.38-11.545 29.905-.166 41.376z"/><path fill="#FF6A00" d="M186.716 231.612L27.865 809.727c-5.118 18.624 8.897 37.01 28.211 37.01H981.43c16.159 0 29.258-13.1 29.258-29.258s-13.1-29.257-29.258-29.257H56.076l28.212 37.009 158.851-578.116c4.281-15.58-4.879-31.682-20.46-35.963-15.58-4.281-31.682 4.879-35.963 20.46zM42.667 954.873h348.647c16.159 0 29.257-13.099 29.257-29.257 0-16.159-13.098-29.257-29.257-29.257H42.667c-16.159 0-29.257 13.098-29.257 29.257 0 16.158 13.098 29.257 29.257 29.257z"/></svg><svg class="icon" viewBox="0 0 1024 1024" width="32" height="32" id="tools" y="1152"><defs><style/></defs><path fill="#FF6A00" d="M286.567 465.01c16.832 16.799 81.725 85.277 81.725 85.277L404.26 513.2l-56.382-58.238 108.22-114.94s-48.83-47.615-27.454-28.64c20.447-75.901 1.824-160.57-55.839-220.249-57.15-59.198-138.363-78.59-211.321-58.206l123.644 127.708-32.543 125.308-121.052 33.439-123.58-127.74c-19.712 75.422-.96 159.323 56.318 218.553 60.094 62.11 146.62 80.382 222.329 54.846zM698.81 589.197L549.695 736.489l245.912 254.808c20.064 20.8 46.495 31.199 72.862 31.199 26.239 0 52.638-10.368 72.798-31.199 40.254-41.63 40.254-108.989 0-150.62l-242.489-251.48zm324.854-427.38L867.061 0 405.41 477.297l56.383 58.238-276.312 285.591-63.166 33.76-89.213 145.563L55.823 1024l140.827-92.253 32.639-65.31 276.343-285.56 56.414 58.239 461.65-477.297z"/></svg><svg class="icon" viewBox="0 0 1024 1024" width="32" height="32" id="toys" y="1184"><defs><style/></defs><path fill="#FF6A00" d="M522.667 843.341c117.723 0 208.411-68.016 208.411-143.775 0-75.76-90.688-143.776-208.411-143.776-117.724 0-208.412 68.016-208.412 143.776S404.943 843.34 522.667 843.34zm0 50.133c-142.79 0-258.545-86.816-258.545-193.908 0-107.093 115.754-193.909 258.545-193.909 142.79 0 258.544 86.816 258.544 193.909 0 107.092-115.754 193.908-258.544 193.908zM328.758 498.406c49.542 0 89.703-40.162 89.703-89.703 0-49.542-40.161-89.703-89.703-89.703-49.541 0-89.703 40.161-89.703 89.703 0 49.541 40.162 89.703 89.703 89.703zm0-50.134c-21.854 0-39.57-17.715-39.57-39.57 0-21.853 17.716-39.569 39.57-39.569s39.57 17.716 39.57 39.57-17.716 39.57-39.57 39.57zM716.575 498.406c49.542 0 89.703-40.162 89.703-89.703 0-49.542-40.161-89.703-89.703-89.703-49.541 0-89.703 40.161-89.703 89.703 0 49.541 40.162 89.703 89.703 89.703zm0-50.134c-21.853 0-39.57-17.715-39.57-39.57 0-21.853 17.717-39.569 39.57-39.569 21.854 0 39.57 17.716 39.57 39.57s-17.716 39.57-39.57 39.57z"/><path fill="#FF6A00" d="M932.149 767.16c44.272-68.626 68.038-147.297 68.038-229.185 0-246.31-214.191-445.202-477.52-445.202-263.33 0-477.52 198.892-477.52 445.202s214.19 445.202 477.52 445.202c121.86 0 236.674-42.754 324.363-118.448 10.48-9.046 11.641-24.875 2.595-35.354-9.046-10.48-24.875-11.642-35.354-2.596-78.59 67.84-181.779 106.265-291.604 106.265-236.437 0-427.387-177.31-427.387-395.069 0-217.758 190.95-395.068 427.387-395.068s427.386 177.31 427.386 395.068c0 72.125-20.922 141.384-60.032 202.007-7.504 11.633-4.158 27.148 7.475 34.652 11.634 7.505 27.148 4.159 34.653-7.475z"/><path fill="#FF6A00" d="M933.297 341.145c41.982-33.922 66.89-84.922 66.89-139.958 0-99.33-80.523-179.854-179.854-179.854-72.894 0-137.725 43.775-165.672 109.752l46.163 19.554c20.162-47.599 66.923-79.172 119.51-79.172 71.642 0 129.72 58.077 129.72 129.72 0 39.728-17.94 76.46-48.264 100.963l31.507 38.995zM131.926 302.15c-30.325-24.503-48.264-61.235-48.264-100.963 0-71.643 58.078-129.72 129.72-129.72 52.587 0 99.348 31.573 119.51 79.172l46.163-19.554C351.108 65.108 286.277 21.333 213.382 21.333c-99.33 0-179.853 80.523-179.853 179.854 0 55.036 24.907 106.036 66.89 139.958l31.507-38.995zM534.522 692.212c38.24 0 69.24-31 69.24-69.24 0-38.24-31-69.24-69.24-69.24-38.24 0-69.24 31-69.24 69.24 0 38.24 31 69.24 69.24 69.24zm0-50.133c-10.552 0-19.107-8.555-19.107-19.107 0-10.553 8.555-19.107 19.107-19.107 10.553 0 19.107 8.554 19.107 19.107 0 10.552-8.554 19.107-19.107 19.107z"/></svg><svg class="icon" viewBox="0 0 1024 1024" width="32" height="32" id="truck" y="1216"><defs><style/></defs><path fill="#FF6A00" d="M794.624 366.24A32.041 32.041 0 0 0 768 352h-32c-17.696 0-32 14.304-32 32v192c0 17.696 14.304 32 32 32h128c17.696 0 32-14.304 32-32v-48a32.177 32.177 0 0 0-5.376-17.76l-96-144zM864 576H736V384h32l96 144v48zm143.872-85.248l-128-192C862.016 271.968 832.128 256 800 256H672v-64c0-52.928-43.072-96-96-96H96c-52.928 0-96 43.072-96 96v352c0 52.928 43.072 96 96 96v96c0 52.928 43.072 96 96 96h36.544c14.304 55.072 64 96 123.488 96 59.424 0 109.12-40.928 123.424-96H644.48c14.304 55.072 64 96 123.488 96 59.424 0 109.12-40.928 123.424-96H928c52.928 0 96-43.072 96-96V544c0-19.008-5.568-37.44-16.128-53.248zM96 576c-17.664 0-32-14.304-32-32V192c0-17.696 14.336-32 32-32h480c17.696 0 32 14.304 32 32v352c0 17.696-14.304 32-32 32H96zm256.032 288c-35.36 0-64-28.672-64-64s28.64-64 64-64c35.328 0 64 28.672 64 64s-28.704 64-64 64zM768 864c-35.36 0-64-28.672-64-64s28.64-64 64-64c35.328 0 64 28.672 64 64s-28.672 64-64 64zm192-128c0 17.696-14.304 32-32 32h-36.576c-14.304-55.072-64-96-123.424-96-59.488 0-109.184 40.928-123.488 96H475.488c-14.304-55.072-64-96-123.424-96-59.488 0-109.184 40.928-123.488 96H192c-17.664 0-32-14.304-32-32v-96h416c52.928 0 96-43.072 96-96V320h128a32.041 32.041 0 0 1 26.624 14.24l128 192A32.177 32.177 0 0 1 960 544v192z"/></svg><svg class="icon" viewBox="0 0 1024 1024" width="32" height="32" id="wire" y="1248"><defs><style/></defs><path fill="#FF6A00" d="M1024 617.6a315.52 315.52 0 0 1-314.88 316.16h-.683a311.467 311.467 0 0 1-192-68.48A319.915 319.915 0 0 1 0 617.6V120.32h60.16V617.6a256 256 0 0 0 408.96 205.44 315.008 315.008 0 0 1-77.44-205.397v-407.04a120.32 120.32 0 0 1 240.64 0v407.04A314.24 314.24 0 0 1 556.8 823.04a255.872 255.872 0 0 0 357.675-55.637A256.555 256.555 0 0 0 963.84 617.6V120.32H1024V617.6zM572.16 210.56a60.16 60.16 0 0 0-120.32 0V617.6A255.915 255.915 0 0 0 512 782.08a256.17 256.17 0 0 0 60.16-164.48V210.56z"/></svg></svg>
