<?xml version="1.0" encoding="utf-8"?>
<!-- Generator: Adobe Illustrator 17.0.0, SVG Export Plug-In . SVG Version: 6.00 Build 0)  -->
<!DOCTYPE svg PUBLIC "-//W3C//DTD SVG 1.1//EN" "http://www.w3.org/Graphics/SVG/1.1/DTD/svg11.dtd">
<svg version="1.1" id="Capa_1" xmlns="http://www.w3.org/2000/svg" xmlns:xlink="http://www.w3.org/1999/xlink" x="0px" y="0px"
	 width="44.5px" height="1290.5px" viewBox="0 0 44.5 1290.5" enable-background="new 0 0 44.5 1290.5" xml:space="preserve">
<g>
	<path fill="#BD081B" d="M26.951,17.726c1.994-2.011,2.739-4.601,1.365-5.892c-1.374-1.292-4.007-0.477-6.001,1.534
		c-1.994,2.011-2.739,4.601-1.365,5.892C22.324,20.552,24.957,19.737,26.951,17.726z M25.825,16.668
		c-1.474,1.486-3.223,2.027-3.788,1.496c-0.565-0.531-0.07-2.252,1.404-3.738c1.474-1.486,3.223-2.027,3.788-1.496
		S27.299,15.182,25.825,16.668z"/>
	<path fill="#BD081B" d="M27.773,23.34c1.994-2.011,2.739-4.601,1.365-5.892c-1.374-1.292-4.007-0.477-6.001,1.534
		c-1.994,2.011-2.739,4.601-1.365,5.892C23.146,26.166,25.779,25.351,27.773,23.34z M26.647,22.282
		c-1.474,1.486-3.223,2.027-3.788,1.496s-0.07-2.252,1.404-3.738c1.474-1.486,3.223-2.027,3.788-1.496
		C28.616,19.075,28.121,20.796,26.647,22.282z"/>
	<path fill="#BD081B" d="M24.888,30.796c-0.385,0.19-0.539,0.649-0.344,1.024c0.196,0.375,0.667,0.525,1.052,0.334
		c0.76-0.376,1.509-0.923,2.177-1.596c1.994-2.011,2.739-4.601,1.365-5.892c-1.374-1.292-4.007-0.477-6.001,1.534
		c-1.994,2.011-2.739,4.601-1.365,5.892c0.311,0.292,0.806,0.284,1.107-0.019c0.3-0.303,0.292-0.785-0.019-1.077
		c-0.565-0.531-0.07-2.252,1.404-3.738s3.223-2.027,3.788-1.496 M15.224,16.668c-1.474-1.486-1.969-3.207-1.404-3.738
		c0.565-0.531,2.314,0.011,3.788,1.496c1.474,1.486,1.969,3.207,1.404,3.738S16.698,18.153,15.224,16.668L15.224,16.668z
		 M14.098,17.726c1.994,2.011,4.627,2.826,6.001,1.534c1.374-1.292,0.629-3.882-1.365-5.892c-1.994-2.011-4.627-2.826-6.001-1.534
		C11.359,13.126,12.104,15.716,14.098,17.726z"/>
	<path fill="#BD081B" d="M18.868,9.552c0-2.065,0.872-3.638,1.657-3.638c0.785,0,1.657,1.573,1.657,3.638s-0.872,3.638-1.657,3.638
		C19.74,13.19,18.868,11.617,18.868,9.552z M17.302,9.552c0,2.795,1.312,5.162,3.222,5.162c1.91,0,3.222-2.367,3.222-5.162
		S22.435,4.39,20.525,4.39C18.615,4.39,17.302,6.757,17.302,9.552L17.302,9.552z M16.046,22.282
		c-1.474-1.486-1.968-3.207-1.404-3.738c0.565-0.531,2.314,0.011,3.788,1.496c1.474,1.485,1.969,3.207,1.404,3.738
		C19.269,24.309,17.519,23.767,16.046,22.282z M14.92,23.34c1.994,2.011,4.627,2.826,6.001,1.534
		c1.374-1.292,0.629-3.882-1.365-5.892c-1.994-2.011-4.627-2.826-6.001-1.534C12.181,18.74,12.925,21.33,14.92,23.34L14.92,23.34z"
		/>
	<path fill="#BD081B" d="M16.046,29.5c-1.474-1.486-1.968-3.207-1.404-3.738c0.565-0.531,2.314,0.011,3.788,1.496
		c1.474,1.486,1.969,3.207,1.404,3.738C19.269,31.527,17.519,30.986,16.046,29.5L16.046,29.5z M14.92,30.559
		c1.994,2.011,4.627,2.826,6.001,1.534s0.629-3.882-1.365-5.892c-1.994-2.011-4.627-2.826-6.001-1.534
		C12.181,25.958,12.925,28.548,14.92,30.559L14.92,30.559z"/>
	<path fill="#BD081B" d="M21.718,35.43v-21.28c0-0.421-0.35-0.762-0.783-0.762c-0.432,0-0.783,0.341-0.783,0.762v21.28
		c0,0.421,0.35,0.762,0.783,0.762S21.718,35.851,21.718,35.43z"/>
	<path fill="#BD081B" d="M22.269,44.39h-10c-0.552,0-1-0.448-1-1s0.448-1,1-1h10c0.552,0,1,0.448,1,1S22.821,44.39,22.269,44.39z
		 M14.269,54.39h-2c-0.552,0-1,0.448-1,1s0.448,1,1,1h2c0.552,0,1-0.448,1-1S14.821,54.39,14.269,54.39z M18.331,63.39
		c0,0.552-0.448,1-1,1H8.145c-0.482,0-0.876-0.394-0.876-0.876V37.266c0-0.482,0.394-0.876,0.974-0.876h19.074l5.952,6v3.064
		c0,0.552-0.448,1-1,1c-0.552,0-1-0.448-1-1.002V44.39h-5.952v-6H9.269v24h8.062C17.885,62.39,18.331,62.838,18.331,63.39z
		 M27.269,42.39h4l-4-4V42.39z M14.269,50.39h-2c-0.552,0-1,0.448-1,1s0.448,1,1,1h2c0.552,0,1-0.448,1-1S14.821,50.39,14.269,50.39
		z M16.769,47.39c0-0.552-0.448-1-1-1h-3.5c-0.552,0-1,0.448-1,1s0.448,1,1,1h3.5C16.321,48.39,16.769,47.942,16.769,47.39z
		 M36.027,66.098c-0.492,0.43-1.244,0.38-1.676-0.116l-4.348-4.986c-1.3,0.872-2.864,1.38-4.544,1.38c-4.522,0-8.19-3.668-8.19-8.19
		s3.668-8.19,8.19-8.19s8.19,3.668,8.19,8.19c0,1.98-0.732,3.774-1.904,5.19l4.4,5.044C36.573,64.916,36.525,65.666,36.027,66.098z
		 M25.459,60.142c3.284,0,5.956-2.672,5.956-5.956s-2.672-5.956-5.956-5.956c-3.286,0-5.956,2.672-5.956,5.956
		C19.503,57.47,22.173,60.142,25.459,60.142z"/>
	<path fill="#BD081B" d="M16.76,81.36l0.127,0.572l-0.356,0.628l6.793,0.115c0.358,0.005,0.653-0.282,0.657-0.641
		c0.005-0.358-0.282-0.653-0.641-0.657C23.341,81.377,16.76,81.36,16.76,81.36z M26.168,81.708l-0.044,0.227l0.11,0.204
		l9.351,17.387l0.571-0.957H6.383l0.565,0.968l9.818-17.387l0.123-0.218l-0.055-0.244l-2.749-12.114l-0.633,0.792h2.749
		l-0.547-0.298c0.024,0.036,0.065,0.1,0.125,0.186c0.458,0.666,0.97,1.293,1.529,1.877c1.274,1.325,2.569,2.14,3.873,2.162h0.098
		c1.321-0.021,2.592-0.842,3.81-2.175c0.582-0.641,1.104-1.334,1.557-2.071l-0.559,0.319h3.072l-0.637-0.773
		C28.524,69.594,26.168,81.708,26.168,81.708z M29.949,69.07h-4.23l-0.189,0.319c-0.408,0.66-0.876,1.281-1.398,1.856
		c-0.999,1.092-1.998,1.739-2.873,1.752c-0.925-0.015-1.96-0.667-3.016-1.765c-0.552-0.577-1.053-1.201-1.497-1.865l-0.191-0.298
		H12.64l0.18,0.792l2.749,12.115l0.068-0.463L5.818,98.9l-0.547,0.967h31.971l-0.515-0.956l-9.351-17.387l0.065,0.431l2.357-12.114
		l0.15-0.773L29.949,69.07z"/>
	<path fill="#BD081B" d="M12.888,129.152c2.104,0,3.809-1.706,3.809-3.81s-1.706-3.81-3.809-3.81c-2.104,0-3.81,1.706-3.81,3.81
		S10.784,129.152,12.888,129.152z M12.888,127.628c-1.262,0-2.286-1.023-2.286-2.286c0-1.262,1.023-2.286,2.286-2.286
		c1.262,0,2.286,1.023,2.286,2.286C15.174,126.605,14.15,127.628,12.888,127.628z M30.412,129.152c2.104,0,3.81-1.706,3.81-3.81
		s-1.706-3.81-3.81-3.81c-2.104,0-3.809,1.706-3.809,3.81S28.308,129.152,30.412,129.152z M30.412,127.628
		c-1.262,0-2.286-1.023-2.286-2.286c0-1.262,1.023-2.286,2.286-2.286c1.262,0,2.286,1.023,2.286,2.286
		C32.697,126.605,31.674,127.628,30.412,127.628z"/>
	<path fill="#BD081B" d="M36.888,125.723v-7.243c0-2.105-1.704-3.815-3.803-3.815H6.409c-0.421,0-0.762,0.341-0.762,0.762v6.879
		c0,2.101,1.707,3.809,3.804,3.809c0.421,0,0.762-0.341,0.762-0.762c0-0.421-0.341-0.762-0.762-0.762
		c-1.255,0-2.28-1.025-2.28-2.285v-6.879l-0.762,0.762h26.676c1.256,0,2.279,1.026,2.279,2.291v7.243
		c0,0.421,0.341,0.762,0.762,0.762C36.547,126.485,36.888,126.144,36.888,125.723z M16.516,126.115h10.465
		c0.421,0,0.762-0.341,0.762-0.762c0-0.421-0.341-0.762-0.762-0.762H16.516c-0.421,0-0.762,0.341-0.762,0.762
		C15.754,125.774,16.095,126.115,16.516,126.115L16.516,126.115z"/>
	<path fill="#BD081B" d="M14.294,107.94l-0.644,0.355h11.054l-0.539-0.223l7.245,7.245l1.859-0.132l-8.026-8.19l-0.223-0.223H13.23
		l-0.224,0.355l-5.07,8.058h1.787L14.294,107.94z"/>
	<path fill="#BD081B" d="M19.745,107.533v7.629h1.524v-7.629L19.745,107.533L19.745,107.533z"/>
	<path fill="#BD081B" d="M15.007,142.295h12.185c3.791,0,6.86,3.065,6.86,6.857v12.958c0,0.419-0.338,0.757-0.761,0.757H8.908
		c-0.418-0.001-0.758-0.338-0.761-0.757v-12.958C8.147,145.367,11.222,142.295,15.007,142.295L15.007,142.295z M6.623,162.11
		c0.004,1.26,1.026,2.28,2.286,2.28h24.382c1.259,0.003,2.282-1.015,2.285-2.275c0-0.002,0-0.004,0-0.005v-12.959
		c0-4.633-3.751-8.381-8.384-8.381H15.007c-4.627,0-8.384,3.755-8.384,8.381C6.623,149.151,6.623,162.11,6.623,162.11z
		 M15.004,146.105c0.424,0,0.762,0.338,0.762,0.767v2.277c0,0.427-0.339,0.767-0.762,0.767c-0.419,0.002-0.76-0.336-0.762-0.755
		c0-0.004,0-0.008,0-0.011v-2.277C14.242,146.445,14.58,146.105,15.004,146.105L15.004,146.105z M12.718,149.148
		c-0.004,1.261,1.015,2.286,2.275,2.29c0.004,0,0.007,0,0.011,0c1.267,0,2.285-1.024,2.285-2.29v-2.277
		c0.004-1.261-1.015-2.286-2.275-2.29c-0.003,0-0.007,0-0.01,0c-1.261-0.001-2.285,1.021-2.286,2.282c0,0.003,0,0.005,0,0.008
		V149.148z M26.433,146.105c0.424,0,0.761,0.338,0.761,0.767v2.277c0,0.427-0.338,0.767-0.761,0.767
		c-0.419,0.002-0.76-0.336-0.762-0.755c0-0.004,0-0.008,0-0.011v-2.277C25.671,146.445,26.009,146.105,26.433,146.105z
		 M24.147,149.148c-0.004,1.261,1.015,2.286,2.275,2.29c0.004,0,0.007,0,0.011,0c1.267,0,2.285-1.024,2.285-2.29v-2.277
		c0.004-1.261-1.015-2.286-2.275-2.29c-0.003,0-0.007,0-0.01,0c-1.261-0.001-2.285,1.021-2.286,2.282c0,0.003,0,0.005,0,0.008
		V149.148z M15.766,139.248c0-2.943,2.392-5.333,5.333-5.333c2.943,0,5.333,2.392,5.333,5.333v6.095h1.523v-6.095
		c0-3.783-3.072-6.858-6.857-6.858c-3.783,0-6.857,3.072-6.857,6.857v6.095h1.524V139.248L15.766,139.248z M29.102,159.057
		c0.421,0,0.762-0.341,0.762-0.762s-0.341-0.762-0.762-0.762H8.147v1.524H29.102L29.102,159.057z"/>
	<path fill="#BD081B" d="M28.507,180.39v15.238l0.762-0.762H17.845c-1.265,0-2.29-1.024-2.29-2.285V180.39l-0.762,0.762h8.381
		c0.421,0,0.762-0.341,0.762-0.762c0-0.421-0.341-0.762-0.762-0.762h-9.143v12.953c0,2.103,1.708,3.809,3.814,3.809h12.186v-16
		c0-0.421-0.341-0.762-0.762-0.762S28.507,179.969,28.507,180.39z M26.221,176.581V168.2c-0.038-0.474-0.153-1.049-0.405-1.639
		c-0.512-1.2-1.418-1.939-2.731-1.784c-0.147,0.017-0.295,0.046-0.443,0.086c-0.931,0.249-1.854,0.906-2.775,1.845
		c-0.392,0.399-0.757,0.824-1.088,1.249c-0.199,0.256-0.345,0.458-0.426,0.579l-0.131,0.193v8.243h1.524v-8.009l-0.131,0.427
		c0.064-0.094,0.19-0.269,0.367-0.497c0.297-0.382,0.625-0.764,0.973-1.118c0.747-0.761,1.471-1.277,2.081-1.44
		c0.079-0.021,0.155-0.036,0.228-0.045c0.525-0.062,0.877,0.225,1.152,0.869c0.103,0.24,0.18,0.506,0.233,0.772
		c0.032,0.159,0.048,0.278,0.053,0.335l-0.003,8.315H26.221L26.221,176.581z"/>
	<path fill="#BD081B" d="M29.461,179.507l-2.667-3.048c-0.145-0.165-0.354-0.26-0.573-0.26h-8.762c-0.235,0-0.457,0.109-0.601,0.294
		l-2.667,3.429c-0.258,0.332-0.198,0.811,0.134,1.069c0.332,0.258,0.811,0.199,1.069-0.134l2.667-3.429l-0.601,0.294h8.762
		l-0.573-0.26l2.667,3.048c0.277,0.317,0.758,0.349,1.075,0.072C29.706,180.305,29.738,179.824,29.461,179.507z"/>
	<path fill="#BD081B" d="M22.117,211.106c1.305,0,2.364-1.048,2.364-2.341c0-1.293-1.058-2.341-2.364-2.341
		c-1.305,0-2.364,1.048-2.364,2.341C19.754,210.057,20.812,211.106,22.117,211.106z M22.117,209.545
		c-0.435,0-0.788-0.349-0.788-0.781c0-0.431,0.353-0.78,0.788-0.78c0.435,0,0.788,0.349,0.788,0.78
		C22.905,209.195,22.553,209.545,22.117,209.545L22.117,209.545z"/>
	<path fill="#BD081B" d="M18.872,203.538c-5.861,1.148-10.149,6.261-10.149,12.251c0,6.897,5.644,12.488,12.606,12.488
		c6.962,0,12.606-5.591,12.606-12.488c0-5.656-3.965-10.603-9.461-12.064l-0.408,1.508c4.818,1.28,8.294,5.617,8.294,10.556
		c0,6.035-4.938,10.927-11.03,10.927s-11.03-4.892-11.03-10.927c0-5.241,3.752-9.715,8.879-10.719
		C19.178,205.069,18.872,203.538,18.872,203.538z"/>
	<path fill="#BD081B" d="M16.602,216.569c1.741,0,3.151-1.398,3.151-3.122c0-1.724-1.411-3.122-3.151-3.122
		s-3.152,1.398-3.152,3.122C13.451,215.171,14.862,216.569,16.602,216.569z M16.602,215.008c-0.87,0-1.576-0.699-1.576-1.561
		c0-0.862,0.705-1.561,1.576-1.561c0.87,0,1.576,0.699,1.576,1.561C18.178,214.309,17.472,215.008,16.602,215.008z"/>
	<path fill="#BD081B" d="M8.967,215.572c0.472,0.447,1.348,1.086,2.61,1.718c2.085,1.044,4.513,1.67,7.255,1.67
		c2.499,0,4.33-0.395,6.406-1.198c0.292-0.113,1.192-0.477,1.27-0.507c0.448-0.177,0.778-0.294,1.092-0.384
		c0.632-0.181,1.179-0.239,1.765-0.172c0.432,0.049,0.823-0.258,0.873-0.686c0.05-0.428-0.26-0.815-0.692-0.865
		c-0.808-0.092-1.562-0.012-2.384,0.224c-0.372,0.107-0.746,0.24-1.237,0.434c-0.088,0.035-0.981,0.395-1.259,0.503
		c-1.906,0.737-3.547,1.091-5.833,1.091c-2.483,0-4.67-0.564-6.544-1.502c-0.652-0.327-1.218-0.675-1.692-1.022
		c-0.278-0.203-0.458-0.355-0.54-0.431c-0.315-0.298-0.813-0.287-1.114,0.025C8.641,214.78,8.652,215.274,8.967,215.572z
		 M19.808,205.055v-4.904l-0.788,0l-2.257,0l0.788,0.781v-2.797l-0.788,0.78h8.929l-0.788-0.781v2.853l0.81-0.78l-2.019-0.056
		l-0.81-0.022v5.108h1.576v-4.305l-0.81,0.78l2.019,0.056l0.81,0.022v-4.436H15.975v4.359l0.788,0l2.257,0l-0.788-0.781v4.124
		H19.808z"/>
	<path fill="#BD081B" d="M37.269,236.39v-2.4c0-0.442-0.358-0.8-0.8-0.8h-30.4c-0.442,0-0.8,0.358-0.8,0.8v9.6
		c0,0.442,0.358,0.8,0.8,0.8h2.4v9.6h-0.8c-0.442,0-0.8,0.358-0.8,0.8c0,0.442,0.358,0.8,0.8,0.8h6.4c0.442,0,0.8-0.358,0.8-0.8
		c0-0.442-0.358-0.8-0.8-0.8h-0.8v-4.8h16v4.8h-0.8c-0.442,0-0.8,0.358-0.8,0.8c0,0.442,0.358,0.8,0.8,0.8h6.4
		c0.442,0,0.8-0.358,0.8-0.8c0-0.442-0.358-0.8-0.8-0.8h-0.8v-9.6h2.4c0.442,0,0.8-0.358,0.8-0.8V236.39z M35.669,236.059
		l-6.731,6.731H23.2l8-8h4.469C35.669,234.79,35.669,236.059,35.669,236.059z M15.2,242.79l8-8h5.738l-8,8H15.2z M7.2,242.79l8-8
		h5.738l-8,8C12.938,242.79,7.2,242.79,7.2,242.79z M12.938,234.79l-6.069,6.069v-6.069C6.869,234.79,12.938,234.79,12.938,234.79z
		 M10.069,253.99v-9.6h1.6v9.6H10.069z M13.269,247.59v-3.2h16v3.2H13.269z M32.469,253.99h-1.6v-9.6h1.6V253.99z M31.2,242.79
		l4.469-4.469v4.469C35.669,242.79,31.2,242.79,31.2,242.79z"/>
	<path fill="#BD081B" d="M31.372,262.43H11.165c-0.62,0-1.122,0.568-1.122,1.269v25.381c0,0.702,0.502,1.269,1.122,1.269h20.207
		c0.621,0,1.123-0.568,1.123-1.269V263.7C32.495,262.999,31.992,262.43,31.372,262.43z M16.717,287.005
		c0,0.503-0.381,0.911-0.85,0.911H13.32c-0.469,0-0.849-0.408-0.849-0.911v-1.822c0-0.503,0.38-0.911,0.849-0.911h2.548
		c0.469,0,0.85,0.408,0.85,0.911V287.005L16.717,287.005z M16.717,281.543c0,0.501-0.381,0.907-0.85,0.907H13.32
		c-0.469,0-0.849-0.406-0.849-0.907v-1.813c0-0.501,0.38-0.907,0.849-0.907h2.548c0.469,0,0.85,0.406,0.85,0.907
		C16.717,279.73,16.717,281.543,16.717,281.543z M16.717,276.089c0,0.503-0.381,0.911-0.85,0.911H13.32
		c-0.469,0-0.849-0.408-0.849-0.911v-1.822c0-0.503,0.38-0.911,0.849-0.911h2.548c0.469,0,0.85,0.408,0.85,0.911V276.089z
		 M23.392,287.005c0,0.503-0.38,0.911-0.849,0.911h-2.548c-0.469,0-0.849-0.408-0.849-0.911v-1.822c0-0.503,0.38-0.911,0.849-0.911
		h2.548c0.469,0,0.849,0.408,0.849,0.911L23.392,287.005L23.392,287.005L23.392,287.005z M23.392,281.543
		c0,0.501-0.38,0.907-0.849,0.907h-2.548c-0.469,0-0.849-0.406-0.849-0.907v-1.813c0-0.501,0.38-0.907,0.849-0.907h2.548
		c0.469,0,0.849,0.406,0.849,0.907L23.392,281.543L23.392,281.543L23.392,281.543z M23.392,276.089c0,0.503-0.38,0.911-0.849,0.911
		h-2.548c-0.469,0-0.849-0.408-0.849-0.911v-1.822c0-0.503,0.38-0.911,0.849-0.911h2.548c0.469,0,0.849,0.408,0.849,0.911
		L23.392,276.089C23.392,276.089,23.392,276.089,23.392,276.089z M30.068,287.005c0,0.503-0.38,0.911-0.849,0.911h-2.548
		c-0.469,0-0.849-0.408-0.849-0.911v-1.822c0-0.503,0.38-0.911,0.849-0.911h2.548c0.469,0,0.849,0.408,0.849,0.911V287.005z
		 M30.068,281.543c0,0.501-0.38,0.907-0.849,0.907h-2.548c-0.469,0-0.849-0.406-0.849-0.907v-1.813c0-0.501,0.38-0.907,0.849-0.907
		h2.548c0.469,0,0.849,0.406,0.849,0.907V281.543L30.068,281.543z M30.068,276.089c0,0.503-0.38,0.911-0.849,0.911h-2.548
		c-0.469,0-0.849-0.408-0.849-0.911v-1.822c0-0.503,0.38-0.911,0.849-0.911h2.548c0.469,0,0.849,0.408,0.849,0.911
		C30.068,274.268,30.068,276.089,30.068,276.089z M30.07,270.321c0,0.67-0.544,1.214-1.214,1.214H13.685
		c-0.671,0-1.214-0.543-1.214-1.214v-4.855c0-0.67,0.543-1.214,1.214-1.214h15.171c0.67,0,1.214,0.543,1.214,1.214L30.07,270.321
		L30.07,270.321z"/>
	<path fill="#BD081B" d="M36.405,303.462c-2.752-8.368-11.776-12.896-20.128-10.16c-8.368,2.752-12.912,11.76-10.16,20.128
		c2.752,8.368,11.776,12.896,20.128,10.16c3.424-1.136,6.176-3.344,8.112-6.096c0.08-0.144,0.096-0.32,0.032-0.512
		c-0.128-0.384-0.512-0.576-0.896-0.448c-0.208,0.064-0.336,0.192-0.416,0.368c-1.728,2.416-4.192,4.352-7.232,5.344
		c-4.848,1.6-9.952,0.48-13.632-2.528l0.72-4.864l-2.832-2.656H7.365c-0.672-2.576-0.624-5.184,0.064-7.6l4.112-0.688l1.296-3.248
		l2.592-1.296l0.608-4.304c0.256-0.096,0.512-0.192,0.768-0.272c2.928-0.96,5.936-0.944,8.672-0.112l-0.56,3.328l-4.928,4.304
		l-4.704,8.064l6.304,5.616l5.84-2.192l-0.624-4.336l4.128-1.024l2.56,2.56l2.192-0.912c-0.032,0.288-0.064,0.56-0.128,0.848v0.016
		c0,0.08,0,0.144,0.016,0.208c0.128,0.384,0.528,0.56,0.896,0.448c0.288-0.096,0.48-0.352,0.48-0.656
		C37.349,308.518,37.221,305.958,36.405,303.462z M11.605,315.286l-0.512,3.424c-1.44-1.456-2.592-3.232-3.344-5.264h1.824
		C9.573,313.446,11.605,315.286,11.605,315.286z M14.277,298.55l-2.432,1.216l-1.216,3.024l-2.752,0.464
		c1.248-3.184,3.616-5.92,6.8-7.552C14.677,295.702,14.277,298.55,14.277,298.55z M31.349,307.062l-5.904,1.472l0.64,4.448
		l-4.192,1.568l-4.976-4.432l4.08-6.992l5.104-4.464l0.592-3.552c3.824,1.536,6.976,4.672,8.352,8.896
		c0.512,1.552,0.768,3.136,0.752,4.688l-1.984,0.832C33.813,309.526,31.349,307.062,31.349,307.062z"/>
	<path fill="#BD081B" d="M16.862,348.471h9.366l-0.78-0.78v3.122l0.78-0.78h-9.366l0.78,0.78v-3.122L16.862,348.471z M16.862,346.91
		h-0.781v4.683h10.927v-4.683C27.009,346.91,16.862,346.91,16.862,346.91z M13.74,332.081v-6.244l-0.781,0.78h4.683l-0.78-0.78
		v6.244h1.561v-7.024h-6.244v7.024H13.74L13.74,332.081z M26.228,332.081v-6.244l-0.781,0.78h4.683l-0.78-0.78v6.244h1.561v-7.024
		h-6.244v7.024C24.667,332.081,26.228,332.081,26.228,332.081z"/>
	<path fill="#BD081B" d="M21.47,333.252h12.563l0.086-0.005c0.456-0.051,0.559,0.013,0.618,0.248
		c0.094,0.373,0.008,1.034-0.253,1.879c-0.42,1.36-1.303,3.163-1.892,4.095c-0.419,0.664-1.057,1.466-1.873,2.372
		c-0.373,0.414-0.78,0.846-1.215,1.29c-0.828,0.847-1.717,1.701-2.606,2.518c-0.284,0.262-0.571,0.521-0.859,0.778
		c-0.107,0.095-0.214,0.19-0.322,0.284l0.511-0.191h-4.683v1.561h4.974l0.22-0.191c0.062-0.054,0.177-0.155,0.337-0.297
		c0.295-0.263,0.588-0.527,0.878-0.795c0.908-0.835,1.817-1.707,2.666-2.576c0.449-0.459,0.87-0.905,1.258-1.336
		c0.87-0.966,1.559-1.832,2.033-2.583c0.657-1.04,1.598-2.963,2.063-4.468c0.339-1.095,0.456-2.003,0.275-2.721
		c-0.258-1.027-1.104-1.552-2.304-1.419l0.086-0.005H21.47C21.47,331.691,21.47,333.252,21.47,333.252z"/>
	<path fill="#BD081B" d="M21.505,331.691H8.943l0.086,0.005c-1.2-0.133-2.046,0.392-2.304,1.419
		c-0.18,0.717-0.063,1.625,0.275,2.721c0.465,1.505,1.406,3.428,2.063,4.468c0.474,0.751,1.163,1.617,2.033,2.583
		c0.388,0.431,0.809,0.878,1.258,1.336c0.85,0.869,1.758,1.741,2.666,2.576c0.291,0.267,0.583,0.532,0.878,0.795
		c0.16,0.142,0.275,0.243,0.337,0.297l0.22,0.191h5.755v-1.561h-5.463l0.511,0.191c-0.108-0.094-0.215-0.189-0.322-0.284
		c-0.289-0.257-0.575-0.516-0.859-0.778c-0.889-0.817-1.778-1.671-2.606-2.518c-0.435-0.444-0.841-0.876-1.215-1.29
		c-0.816-0.906-1.454-1.708-1.873-2.372c-0.589-0.932-1.471-2.735-1.892-4.095c-0.261-0.845-0.347-1.506-0.253-1.879
		c0.059-0.235,0.162-0.299,0.618-0.248l0.086,0.005h12.563C21.505,333.252,21.505,331.691,21.505,331.691z M17.643,351.203v4.293
		c0,0.431,0.349,0.78,0.781,0.78s0.781-0.349,0.781-0.78v-4.293c0-0.431-0.349-0.78-0.781-0.78S17.643,350.772,17.643,351.203z
		 M23.887,351.203v4.293c0,0.431,0.349,0.78,0.781,0.78s0.781-0.349,0.781-0.78v-4.293c0-0.431-0.349-0.78-0.781-0.78
		S23.887,350.772,23.887,351.203z"/>
	<path fill="#BD081B" d="M7.336,361.19h24.937c1.212,0,2.196,0.985,2.196,2.199v16.868l0.733-0.733H10.265
		c-1.212,0-2.196-0.985-2.196-2.199v-16.868L7.336,361.19z M7.336,359.723H6.602v17.601c0,2.023,1.64,3.666,3.663,3.666h25.67
		v-17.601c0-2.023-1.64-3.666-3.663-3.666H7.336z"/>
	<path fill="#BD081B" d="M18.028,380.335l-2.2,5.133c-0.16,0.372,0.013,0.803,0.385,0.963c0.372,0.16,0.803-0.013,0.963-0.385
		l2.2-5.133c0.16-0.372-0.013-0.803-0.385-0.963C18.619,379.79,18.188,379.962,18.028,380.335z M23.623,382.907l2.567,3.3
		c0.249,0.32,0.709,0.377,1.029,0.129s0.377-0.709,0.129-1.029l-2.567-3.3c-0.249-0.32-0.709-0.377-1.029-0.129
		S23.375,382.587,23.623,382.907z"/>
	<path fill="#BD081B" d="M12.836,386.857h17.604c0.405,0,0.733-0.328,0.733-0.733s-0.328-0.733-0.733-0.733H12.836
		c-0.405,0-0.733,0.328-0.733,0.733C12.102,386.528,12.431,386.857,12.836,386.857z"/>
	<path fill="#BD081B" d="M32.434,418.676v1.143c0,0.155-0.057,0.289-0.17,0.402c-0.113,0.113-0.247,0.17-0.402,0.17h-24
		c-0.155,0-0.289-0.057-0.402-0.17c-0.113-0.113-0.17-0.247-0.17-0.402v-1.143c0-0.155,0.057-0.289,0.17-0.402
		c0.113-0.113,0.247-0.17,0.402-0.17h24c0.155,0,0.289,0.057,0.402,0.17C32.378,418.387,32.434,418.521,32.434,418.676z
		 M27.862,399.819c0,0.929-0.146,1.786-0.438,2.571c-0.292,0.785-0.673,1.455-1.143,2.009c-0.47,0.554-0.991,1.078-1.563,1.571
		c-0.572,0.493-1.143,0.955-1.714,1.384s-1.092,0.858-1.563,1.286c-0.471,0.428-0.852,0.913-1.143,1.455
		c-0.291,0.542-0.437,1.116-0.438,1.723c0,1.143,0.399,2.476,1.196,4l-0.071-0.018l0.018,0.018
		c-1.071-0.488-2.024-0.982-2.857-1.482c-0.833-0.5-1.658-1.095-2.473-1.786c-0.815-0.691-1.491-1.42-2.027-2.188
		s-0.968-1.664-1.295-2.688c-0.327-1.024-0.491-2.119-0.491-3.286c0-0.929,0.146-1.786,0.438-2.571
		c0.292-0.785,0.673-1.455,1.143-2.009c0.47-0.554,0.991-1.078,1.563-1.571c0.572-0.493,1.143-0.955,1.714-1.384
		c0.571-0.429,1.092-0.858,1.563-1.286c0.471-0.428,0.852-0.913,1.143-1.455s0.437-1.116,0.438-1.723c0-1.119-0.393-2.453-1.179-4
		l0.054,0.018l-0.018-0.018c1.071,0.488,2.024,0.982,2.857,1.482s1.658,1.095,2.473,1.786c0.815,0.691,1.491,1.42,2.027,2.188
		s0.968,1.664,1.295,2.688C27.699,397.557,27.862,398.652,27.862,399.819L27.862,399.819z"/>
	<path fill="#BD081B" d="M18.202,451.123c-0.067,0-0.2,0-0.267-0.067c-0.267-0.133-0.467-0.467-0.333-0.8l2.933-10.733l-6.467-0.067
		c-0.2,0-0.4-0.067-0.533-0.267c-0.133-0.133-0.2-0.333-0.133-0.533l3.333-15.267c0.067-0.333,0.333-0.533,0.667-0.533h10.8
		c0.267,0,0.467,0.133,0.6,0.333c0.133,0.2,0.133,0.467,0,0.667l-6.133,9.4l7.8-0.133c0.267,0,0.467,0.133,0.6,0.333
		c0.133,0.2,0.067,0.467-0.067,0.733l-4.133,5.667c-0.2,0.267-0.667,0.333-0.933,0.133c-0.267-0.2-0.333-0.667-0.133-0.933
		l3.333-4.533l-7.667,0.133c-0.267,0-0.467-0.133-0.6-0.333c-0.133-0.2-0.133-0.467,0-0.667l6.2-9.4h-9.133l-3.067,13.933
		l6.533,0.067c0.2,0,0.4,0.067,0.533,0.267c0.133,0.133,0.133,0.4,0.133,0.6l-2.2,8l2.267-3.2c0.2-0.267,0.6-0.4,0.933-0.133
		c0.333,0.267,0.333,0.6,0.133,0.933l-4.467,6.2C18.602,450.99,18.402,451.123,18.202,451.123z"/>
	<path fill="#BD081B" d="M24.536,442.99c-0.533,0-1-0.467-1-1c0-0.533,0.467-1,1-1s1,0.467,1,1
		C25.536,442.523,25.069,442.99,24.536,442.99z"/>
	<path fill="#BD081B" d="M36.758,470.813c-0.282,0-0.511,0.229-0.511,0.511v1.532H6.29v-1.532c0-0.282-0.229-0.511-0.511-0.511
		c-0.282,0-0.511,0.229-0.511,0.511v12.469c0,0.282,0.229,0.511,0.511,0.511h30.979c0.282,0,0.511-0.229,0.511-0.511v-12.469
		C37.269,471.041,37.04,470.813,36.758,470.813L36.758,470.813z M36.248,474.898H9.865c-0.282,0-0.511,0.229-0.511,0.511
		c0,0.282,0.229,0.511,0.511,0.511h26.383v7.362H6.29v-7.362h1.532c0.282,0,0.511-0.229,0.511-0.511
		c0-0.282-0.229-0.511-0.511-0.511H6.29v-1.021h29.957L36.248,474.898L36.248,474.898z"/>
	<path fill="#BD081B" d="M18.156,471.719c0.091,0.075,0.205,0.115,0.323,0.115c0.148,0,0.295-0.064,0.396-0.188l5.662-6.935
		c0.178-0.218,0.146-0.54-0.073-0.719c-0.218-0.178-0.54-0.146-0.719,0.073L18.083,471C17.905,471.219,17.938,471.54,18.156,471.719
		z M20.671,471c-0.178,0.218-0.146,0.54,0.073,0.719c0.091,0.075,0.205,0.115,0.323,0.115c0.148,0,0.295-0.064,0.396-0.188
		c0,0,5.582-6.838,5.661-6.934c0,0,0.001-0.001,0.001-0.001c0.032-0.039,0.065-0.076,0.1-0.111c0.569-0.569,1.494-0.569,2.063,0
		l1.408,1.408c0.569,0.569,0.569,1.494,0,2.063c-0.035,0.035-0.072,0.069-0.111,0.1l-3.377,2.756
		c-0.218,0.178-0.251,0.5-0.073,0.718c0.097,0.119,0.242,0.188,0.396,0.188c0.114,0,0.228-0.038,0.323-0.115l3.377-2.756
		c0.065-0.053,0.128-0.11,0.187-0.169c0.84-0.84,0.95-2.137,0.331-3.097c1.383-1.229,3.145-1.901,5.01-1.901
		c0.282,0,0.511-0.229,0.511-0.511c0-0.282-0.229-0.511-0.511-0.511c-2.067,0-4.021,0.726-5.573,2.058l4.306-4.306
		c0.199-0.199,0.199-0.523,0-0.722c-0.199-0.199-0.523-0.199-0.722,0l-4.305,4.305c1.331-1.552,2.057-3.507,2.057-5.573
		c0-0.282-0.229-0.511-0.511-0.511c-0.282,0-0.511,0.229-0.511,0.511c0,1.865-0.672,3.627-1.901,5.01
		c-0.96-0.619-2.257-0.509-3.097,0.331c-0.059,0.059-0.116,0.122-0.169,0.187l0.001,0.001c-0.023,0.025-0.044,0.052-0.065,0.077
		L20.671,471z M7.821,471.834c0.282,0,0.511-0.229,0.511-0.511v-12.374h7.249v12.374c0,0.282,0.229,0.511,0.511,0.511
		c0.282,0,0.511-0.229,0.511-0.511v-12.721l1.921-2.692l1.44,2.018H18.6c-0.282,0-0.511,0.229-0.511,0.511
		c0,0.282,0.229,0.511,0.511,0.511h1.843v6.113c0,0.282,0.229,0.511,0.511,0.511s0.511-0.229,0.511-0.511v-6.623
		c0-0.106-0.033-0.21-0.095-0.297l-2.336-3.275v-1.879c0-0.282-0.229-0.511-0.511-0.511h-8.27c-0.282,0-0.511,0.229-0.511,0.511
		v1.879l-2.337,3.275c-0.062,0.087-0.095,0.19-0.095,0.297v12.885C7.31,471.605,7.538,471.834,7.821,471.834L7.821,471.834z
		 M10.763,453.499h7.249v1.021h-7.249L10.763,453.499L10.763,453.499z M10.515,455.541h7.016l-1.703,2.386H8.812
		C8.812,457.928,10.515,455.541,10.515,455.541z M34.716,471.834c0.282,0,0.511-0.229,0.511-0.511v-0.848
		c0-1.062-0.671-2.024-1.67-2.395c-0.264-0.098-0.558,0.037-0.656,0.301c-0.098,0.264,0.037,0.558,0.301,0.656
		c0.601,0.223,1.004,0.8,1.004,1.438v0.848C34.205,471.605,34.434,471.834,34.716,471.834z"/>
	<path fill="#BD081B" d="M32.002,497.323c-0.2-5.733-4.867-10.267-10.667-10.267c-5.733,0-10.4,4.533-10.667,10.267
		c-1.6,0.467-2.733,2-2.733,3.733c0,2,1.467,3.6,3.333,3.933v3.333c0,1.867,1.467,3.333,3.333,3.333v1.333
		c0,0.4,0.267,0.667,0.667,0.667s0.667-0.267,0.667-0.667v-1.333h10.667v1.333c0,0.4,0.267,0.667,0.667,0.667
		s0.667-0.267,0.667-0.667v-1.333h0.6c1.867,0,3.333-1.533,3.333-3.333v-3.533c1.6-0.533,2.733-2.067,2.733-3.8
		C34.602,499.39,33.536,497.923,32.002,497.323z M21.336,488.39c4.933,0,9,3.867,9.333,8.733c-2.2,0-3.933,1.733-4,3.933v6H15.936
		v-6c0-2.133-1.733-3.933-3.867-4C12.336,492.257,16.402,488.39,21.336,488.39z M31.136,503.723c-0.2,0.067-0.4,0.2-0.467,0.333
		c0,0.133-0.067,0.2-0.067,0.333v4c0,1.133-0.933,2-2,2h-14c-1.133,0-2-0.933-2-2v-4c0-0.4-0.267-0.667-0.667-0.667
		c-1.467,0-2.667-1.2-2.667-2.667c0-1.467,1.2-2.667,2.667-2.667s2.667,1.2,2.667,2.667v6.667c0,0.4,0.267,0.667,0.667,0.667h12
		c0.4,0,0.667-0.267,0.667-0.667v-6.667c0-1.467,1.2-2.667,2.667-2.667c1.467,0,2.667,1.2,2.667,2.667
		C33.269,502.323,32.402,503.457,31.136,503.723z"/>
	<path fill="#BD081B" d="M18.002,505.057h6.667c0.4,0,0.667-0.267,0.667-0.667c0-0.4-0.267-0.667-0.667-0.667h-6.667
		c-0.4,0-0.667,0.267-0.667,0.667C17.336,504.79,17.602,505.057,18.002,505.057z"/>
	<path fill="#BD081B" d="M21.266,527.328c-2.794,0-5.061,2.267-5.061,5.063c0,2.793,2.267,5.064,5.061,5.064
		s5.045-2.271,5.045-5.064C26.311,529.595,24.061,527.328,21.266,527.328z M31.413,535.298l-0.912,2.197l1.842,3.617l-2.256,2.256
		l-3.701-1.748l-2.197,0.902l-1.115,3.414l-0.143,0.453h-3.188l-1.38-3.854l-2.197-0.906l-3.622,1.834l-2.255-2.254l1.746-3.703
		l-0.905-2.195l-3.86-1.26v-3.187l3.856-1.382l0.905-2.193l-1.622-3.202l-0.214-0.42l2.252-2.252l3.706,1.745l2.194-0.907
		l1.114-3.412l0.144-0.452h3.188l1.381,3.858l2.191,0.907l3.627-1.838l2.254,2.252l-1.746,3.7l0.902,2.198l3.867,1.258v3.186
		l-3.855,1.387L31.413,535.298z"/>
	<path fill="#BD081B" d="M9.998,565.775v10.237c0,1.129,0.916,2.047,2.041,2.047h17.75c1.128,0,2.041-0.912,2.041-2.041v-9.907
		h-1.364v9.907c0.001,0.373-0.3,0.676-0.673,0.677c-0.001,0-0.002,0-0.003,0h-17.75c-0.371,0-0.677-0.307-0.677-0.683v-10.237H9.998
		L9.998,565.775z"/>
	<path fill="#BD081B" d="M22.277,577.367v-19.442h-1.364v19.442H22.277L22.277,577.367z"/>
	<path fill="#BD081B" d="M7.951,558.607h23.197c1.128,0,2.043,0.917,2.043,2.048v4.774l0.682-0.682H10.676
		c-1.128,0-2.043-0.917-2.043-2.048v-4.773L7.951,558.607L7.951,558.607z M7.951,557.243H7.269v5.456
		c0,1.884,1.525,3.412,3.407,3.412h23.879v-5.456c0-1.884-1.525-3.413-3.407-3.413H7.951L7.951,557.243z"/>
	<path fill="#BD081B" d="M19.548,556.561h4.093l-0.682-0.682v2.047l0.682-0.682h-4.093l0.682,0.682v-2.047L19.548,556.561z
		 M19.548,555.196h-0.682v3.411h5.457v-3.411H19.548z"/>
	<path fill="#BD081B" d="M22.508,556.249c0.028-0.043,0.082-0.126,0.16-0.242c0.144-0.217,0.29-0.433,0.438-0.648
		c0.46-0.671,0.941-1.341,1.418-1.965c0.255-0.333,0.502-0.644,0.738-0.929c0.876-1.053,1.613-1.703,1.789-1.703
		c1.063,0,2.931,1.18,3.888,2.456c0.159,0.212,0.07,0.806-0.326,1.641c-0.162,0.34-0.016,0.747,0.324,0.909
		c0.34,0.161,0.747,0.016,0.909-0.324c0.597-1.259,0.751-2.289,0.185-3.044c-1.192-1.589-3.428-3.002-4.98-3.002
		c-0.782,0-1.647,0.763-2.838,2.195c-0.25,0.3-0.508,0.625-0.773,0.972c-0.493,0.644-0.987,1.333-1.459,2.022
		c-0.152,0.221-0.301,0.443-0.45,0.666c-0.057,0.085-0.113,0.17-0.168,0.256c-0.205,0.316-0.114,0.739,0.202,0.943
		C21.881,556.656,22.304,556.565,22.508,556.249L22.508,556.249z"/>
	<path fill="#BD081B" d="M22.081,555.508c-0.031-0.048-0.088-0.135-0.168-0.256c-0.148-0.223-0.298-0.445-0.45-0.666
		c-0.472-0.688-0.967-1.377-1.46-2.022c-0.265-0.347-0.524-0.672-0.773-0.972c-1.191-1.432-2.057-2.195-2.838-2.195
		c-1.552,0-3.788,1.412-4.98,3.002c-0.562,0.749-0.414,1.769,0.17,3.013c0.195,0.415,0.438,0.848,0.717,1.292
		c0.257,0.408,0.531,0.803,0.805,1.171c0.165,0.222,0.295,0.387,0.372,0.481l1.056-0.864c-0.064-0.078-0.181-0.228-0.333-0.432
		c-0.254-0.342-0.509-0.709-0.745-1.084c-0.252-0.4-0.468-0.785-0.637-1.145c-0.386-0.822-0.47-1.405-0.314-1.615
		c0.957-1.276,2.825-2.456,3.888-2.456c0.176,0,0.913,0.65,1.789,1.703c0.237,0.285,0.484,0.596,0.738,0.929
		c0.477,0.624,0.958,1.294,1.418,1.965c0.161,0.235,0.308,0.453,0.438,0.648c0.054,0.081,0.107,0.161,0.159,0.242
		C20.936,556.249,22.081,555.508,22.081,555.508z"/>
	<path fill="#BD081B" d="M29.935,599.057h3.333v3.333h-3.333L29.935,599.057z M20.602,599.057h3.333v3.333h-3.333L20.602,599.057z
		 M25.269,599.057h3.333v3.333h-3.333L25.269,599.057z"/>
	<path fill="#BD081B" d="M30.335,585.529c-0.253-0.299-0.626-0.472-1.018-0.472H13.221c-0.392,0-0.764,0.173-1.018,0.472
		l-6.934,8.194v12.666c0,0.736,0.597,1.333,1.333,1.333h29.332c0.736,0,1.333-0.597,1.333-1.333v-12.666L30.335,585.529z
		 M13.53,587.057h15.477l5.641,6.666H7.889L13.53,587.057L13.53,587.057z M35.268,605.723H7.27v-10h27.999L35.268,605.723
		L35.268,605.723z"/>
	<path fill="#BD081B" d="M35.61,619.128c-2.236-2.555-4.631-3.833-7.186-3.833h-0.08c-3.353,0-5.988,2.236-7.026,3.274
		c-1.038-1.038-3.673-3.274-7.026-3.274h-0.08c-2.555,0-5.03,1.277-7.186,3.833c-1.357,1.517-1.836,3.274-1.517,5.27
		c1.118,7.825,14.771,16.528,15.33,16.927c0.16,0.08,0.24,0.16,0.399,0.16h0.24c0.16,0,0.319-0.08,0.399-0.16
		c0.559-0.399,14.212-9.022,15.33-16.927C37.446,622.482,36.887,620.645,35.61,619.128z M21.238,639.728
		c-1.198-0.798-5.27-3.593-8.783-7.026h2.475c0.319,0,0.639-0.16,0.719-0.479l2.715-6.308l3.593,9.102
		c0.16,0.319,0.399,0.479,0.719,0.479s0.639-0.24,0.719-0.559l1.597-4.631l1.198,2.156c0.16,0.24,0.399,0.399,0.719,0.399h2.874
		C26.348,636.295,22.356,639.009,21.238,639.728z M35.53,624.238c-0.319,2.315-1.996,4.791-4.152,7.106h-3.992l-1.836-3.353
		c-0.16-0.24-0.479-0.399-0.798-0.399s-0.559,0.24-0.719,0.559l-1.517,4.312l-3.353-8.863c-0.16-0.319-0.399-0.479-0.719-0.479
		s-0.639,0.16-0.719,0.479l-3.274,7.585h-3.513c-2.076-2.236-3.673-4.711-3.992-6.946c-0.24-1.517,0.16-2.874,1.198-3.992
		c1.836-2.236,3.912-3.353,5.988-3.353h0.08c3.593,0,6.308,3.194,6.388,3.274c0.16,0.16,0.399,0.319,0.639,0.319h0.24
		c0.24,0,0.479-0.08,0.639-0.319c0,0,2.715-3.194,6.388-3.274h0.08c2.076,0,4.152,1.118,5.988,3.274
		C35.37,621.364,35.769,622.641,35.53,624.238z"/>
	<path fill="#BD081B" d="M36.279,658.39c-0.2,0-0.4-0.05-0.6-0.2l-14.4-10.55l-14.4,10.55c-0.45,0.35-1.05,0.25-1.4-0.2
		s-0.25-1.05,0.2-1.4l15-11c0.35-0.25,0.85-0.25,1.2,0l15,11c0.45,0.35,0.55,0.95,0.2,1.4
		C36.879,658.24,36.579,658.39,36.279,658.39z"/>
	<path fill="#BD081B" d="M31.279,674.39h-6c-0.55,0-1-0.45-1-1v-11h-6v11c0,0.55-0.45,1-1,1h-6c-1.65,0-3-1.35-3-3v-12
		c0-0.55,0.45-1,1-1s1,0.45,1,1v12c0,0.55,0.45,1,1,1h5v-11c0-0.55,0.45-1,1-1h8c0.55,0,1,0.45,1,1v11h5c0.55,0,1-0.45,1-1v-12
		c0-0.55,0.45-1,1-1s1,0.45,1,1v12C34.279,673.04,32.929,674.39,31.279,674.39z"/>
	<path fill="#BD081B" d="M36.88,688.119l-14.793-10.575c-0.105-0.107-0.262-0.214-0.367-0.267c-0.42-0.267-1.049-0.107-1.364,0.374
		L5.667,688.172c-0.472,0.32-0.524,1.014-0.157,1.549c0.367,0.533,1.049,0.694,1.469,0.373l0.997-0.747v17.358
		c0,0.64,0.524,1.175,1.154,1.175s1.154-0.534,1.154-1.175v-19.013L21.3,679.84l11.121,7.958v18.853
		c0,0.641,0.524,1.175,1.154,1.175c0.63,0,1.154-0.534,1.154-1.175v-17.143l0.787,0.534c0.472,0.32,1.102,0.16,1.469-0.374
		C37.352,689.133,37.3,688.439,36.88,688.119 M15.949,704.141h-1.888c-0.734,0-0.892,0.16-0.892,0.907v1.976
		c0,0.747,0.158,0.907,0.892,0.907h1.888c0.734,0,0.891-0.161,0.891-0.907v-1.976C16.788,704.301,16.631,704.141,15.949,704.141
		 M15.949,697.679h-1.888c-0.734,0-0.892,0.16-0.892,0.907v1.923c0,0.748,0.158,0.907,0.892,0.907h1.888
		c0.734,0,0.891-0.16,0.891-0.907v-1.976C16.788,697.839,16.631,697.679,15.949,697.679 M22.244,704.141h-1.888
		c-0.735,0-0.891,0.16-0.891,0.907v1.976c0,0.747,0.157,0.907,0.891,0.907h1.888c0.735,0,0.892-0.161,0.892-0.907v-1.976
		C23.084,704.301,22.926,704.141,22.244,704.141 M28.539,704.141H26.65c-0.734,0-0.891,0.16-0.891,0.907v1.976
		c0,0.747,0.157,0.907,0.891,0.907h1.889c0.734,0,0.891-0.161,0.891-0.907v-1.976C29.378,704.301,29.221,704.141,28.539,704.141
		 M22.244,697.679h-1.888c-0.735,0-0.891,0.16-0.891,0.907v1.923c0,0.748,0.157,0.907,0.891,0.907h1.888
		c0.735,0,0.892-0.16,0.892-0.907v-1.976C23.084,697.839,22.926,697.679,22.244,697.679 M15.949,691.216h-1.888
		c-0.734,0-0.892,0.161-0.892,0.908v1.976c0,0.748,0.158,0.908,0.892,0.908h1.888c0.734,0,0.891-0.16,0.891-0.908v-1.976
		C16.788,691.324,16.631,691.216,15.949,691.216z"/>
	<path fill="#BD081B" d="M29.965,712.406c-0.143-0.188-0.366-0.298-0.602-0.298h-9.306c-0.275,0,0.222,1.381,0.275,1.616
		c0.016,0.072,0.61-0.069,0.651,0l5.044,8.234l-0.051-0.648l-5.808,15.206c-0.058,0.151-0.095,0.288-0.11,0.42
		c-0.034,0.32,0.043,0.629,0.394,0.836c0.339,0.2,0.635,0.128,0.899-0.041c0.111-0.071,0.216-0.165,0.326-0.283l13.07-12.652
		c0.3-0.291,0.308-0.769,0.017-1.07c-0.291-0.3-0.769-0.308-1.07-0.017l-13.098,12.68c0.243-0.263,1.137,0.264,0.984,0.666
		l5.808-15.206c0.081-0.213,0.062-0.451-0.051-0.648l-5.028-8.716l-0.655,1.134h7.71l-0.602-0.298l6.369,8.364
		c0.253,0.332,0.728,0.397,1.06,0.143c0.332-0.253,0.397-0.728,0.144-1.06L29.965,712.406L29.965,712.406z"/>
	<path fill="#BD081B" d="M29.338,713.907l-3.017,7.04l-0.452,1.054h10.241v-1.513h-9.094l0.695,1.054l3.017-7.04L29.338,713.907
		L29.338,713.907z M19.321,712.486l-5.028,8.716l-0.174,0.302l0.117,0.329l5.402,15.196c-0.137-0.386,0.748-0.909,1.017-0.612
		l-13.86-15.344l0.061,0.938l6.034-8.716l-0.622,0.326h7.71L19.321,712.486L19.321,712.486z M20.632,713.242l0.654-1.134H11.87
		l-0.226,0.326L5.61,721.15l-0.341,0.493l0.402,0.445l13.86,15.344c0.11,0.122,0.215,0.218,0.327,0.292
		c0.265,0.173,0.566,0.247,0.907,0.045c0.343-0.203,0.424-0.504,0.397-0.821c-0.011-0.133-0.046-0.272-0.1-0.425l-5.402-15.196
		l-0.058,0.631L20.632,713.242L20.632,713.242z"/>
	<path fill="#BD081B" d="M11.236,714.503l3.017,7.04l0.695-1.054H6.902v1.513h9.193l-0.452-1.054l-3.017-7.04L11.236,714.503
		L11.236,714.503z"/>
	<path fill="#BD081B" d="M14.931,721.606h20.423c0.418,0,0.756-0.339,0.756-0.756c0-0.418-0.339-0.756-0.756-0.756H14.931
		c-0.418,0-0.756,0.339-0.756,0.756C14.174,721.268,14.513,721.606,14.931,721.606z"/>
	<path fill="#BD081B" d="M15.957,756.39h2.625v6.688h-2.625V756.39z M15.957,747.078h2.625v4h-2.625V747.078z M29.269,752.39v-6.688
		h-16v6.688H29.269z M29.269,767.078v-12.063h-16v12.063H29.269z M29.269,743.078c0.75,0,1.386,0.25,1.907,0.751
		c0.521,0.5,0.781,1.125,0.781,1.875v21.375c0,0.708-0.271,1.323-0.812,1.844s-1.166,0.781-1.875,0.781h-16
		c-0.708,0-1.333-0.26-1.875-0.781s-0.812-1.136-0.812-1.844v-21.375c0-0.75,0.26-1.375,0.781-1.875s1.156-0.75,1.907-0.751h16
		H29.269z"/>
	<path fill="#BD081B" d="M26.508,802.48c-0.133,0.004-0.377,0.011-0.71,0.02c-0.556,0.015-1.156,0.03-1.778,0.044
		c-0.8,0.018-1.577,0.033-2.31,0.044c-1.346,0.02-2.466,0.026-3.284,0.014c-0.456-0.007-0.809-0.019-1.044-0.037
		c-0.106-0.008-0.182-0.017-0.215-0.023c0.015,0.003,0.036,0.009,0.079,0.028c0.234,0.102,0.43,0.283,0.43,0.674v-2.913v-2.42
		v-1.291c0-0.221-0.095-0.43-0.261-0.575c-0.048-0.042-0.144-0.128-0.279-0.253c-0.229-0.212-0.484-0.456-0.76-0.73
		c-0.788-0.783-1.576-1.641-2.309-2.546c-1.359-1.675-2.369-3.311-2.887-4.811c-0.252-0.729-0.381-1.411-0.381-2.038
		c0-6.12,4.961-11.081,11.081-11.081s11.081,4.961,11.081,11.081c0,0.563-0.114,1.168-0.337,1.812
		c-0.543,1.564-1.699,3.278-3.286,5.032c-0.816,0.901-1.691,1.755-2.567,2.531c-0.306,0.272-0.59,0.514-0.845,0.724
		c-0.151,0.124-0.257,0.209-0.311,0.251c-0.186,0.145-0.295,0.367-0.295,0.603v3.567l0.764-0.764h-8.789
		c-0.422,0-0.764,0.342-0.764,0.764s0.342,0.764,0.764,0.764h8.789c0.422,0,0.764-0.342,0.764-0.764v-3.567l-0.295,0.603
		c0.065-0.051,0.183-0.145,0.345-0.279c0.268-0.221,0.566-0.475,0.887-0.759c0.915-0.811,1.83-1.703,2.687-2.649
		c1.713-1.893,2.974-3.764,3.597-5.556c0.277-0.797,0.422-1.569,0.422-2.313c0-6.964-5.646-12.61-12.61-12.61
		c-6.964,0-12.61,5.646-12.61,12.61c0,0.809,0.161,1.656,0.465,2.537c0.586,1.696,1.684,3.473,3.145,5.275
		c0.771,0.951,1.595,1.849,2.419,2.668c0.289,0.287,0.557,0.544,0.799,0.767c0.147,0.136,0.253,0.231,0.312,0.282l-0.261-0.575
		v6.624c0,0.409,0.215,0.607,0.485,0.725c0.079,0.035,0.154,0.056,0.24,0.072c0.105,0.021,0.234,0.036,0.395,0.048
		c0.272,0.021,0.652,0.034,1.136,0.041c0.836,0.013,1.97,0.007,3.33-0.014c0.737-0.011,1.518-0.026,2.322-0.045
		c0.625-0.014,1.227-0.029,1.785-0.044c0.335-0.009,0.581-0.016,0.715-0.02c0.422-0.013,0.754-0.365,0.741-0.787
		C27.283,802.799,26.93,802.467,26.508,802.48z"/>
	<path fill="#BD081B" d="M17.135,789.646l3.821,3.821c0.287,0.287,0.75,0.3,1.052,0.028l3.821-3.439
		c0.314-0.282,0.339-0.766,0.057-1.079c-0.282-0.314-0.766-0.339-1.079-0.057l-3.821,3.439l1.052,0.028l-3.821-3.821
		c-0.298-0.298-0.782-0.298-1.081,0C16.837,788.864,16.837,789.348,17.135,789.646L17.135,789.646z"/>
	<path fill="#BD081B" d="M20.732,793.309v6.496h1.528v-6.496H20.732z"/>
	<path fill="#BD081B" d="M33.269,812.39h-8v-3c0-0.6-0.5-1-1-1h-6c-0.6,0-1,0.5-1,1v3h-8c-1.1,0-2,0.9-2,2v16c0,1.1,0.9,2,2,2h24
		c1.1,0,2-0.9,2-2v-16C35.269,813.29,34.369,812.39,33.269,812.39z M18.269,809.39h6v3h-6V809.39z M12.269,831.39h-3
		c-0.5,0-1-0.4-1-1v-16c0-0.6,0.4-1,1-1h3V831.39z M29.269,831.39h-16v-18h16V831.39z M34.269,830.39c0,0.5-0.4,1-1,1h-3v-18h3
		c0.6,0,1,0.5,1,1V830.39z"/>
	<path fill="#BD081B" d="M36.936,860.493l0.128-8.026l0.01-0.613l-0.587-0.158l-2.72-0.731l0.578,0.758v-12.307l-0.77-0.008
		l-11.072-0.118l-0.633-0.007l-0.136,0.623l-2.246,10.31l0.76-0.616h-3.714l-0.184,0.522l-4.408,12.514l-0.369,1.047h6.346
		c0.43,0,0.778-0.351,0.778-0.784s-0.348-0.784-0.778-0.784h-5.244l0.733,1.047l4.408-12.514l-0.733,0.522h3.791l0.134-0.616
		l2.246-10.31l-0.768,0.616l11.072,0.118l-0.77-0.784v12.133l0.578,0.155l2.72,0.731l-0.578-0.77l-0.128,8.026
		c-0.007,0.433,0.336,0.79,0.766,0.797C36.575,861.272,36.929,860.927,36.936,860.493z"/>
	<path fill="#BD081B" d="M20.539,865.723c1.934,0,3.502-1.58,3.502-3.529c0-1.949-1.568-3.529-3.502-3.529
		c-1.934,0-3.502,1.58-3.502,3.529C17.038,864.143,18.606,865.723,20.539,865.723z M20.539,864.155
		c-1.074,0-1.945-0.878-1.945-1.961c0-1.083,0.871-1.961,1.945-1.961c1.074,0,1.945,0.878,1.945,1.961
		C22.485,863.277,21.614,864.155,20.539,864.155L20.539,864.155z M29.877,865.723c1.934,0,3.502-1.58,3.502-3.529
		c0-1.949-1.568-3.529-3.502-3.529c-1.934,0-3.501,1.58-3.501,3.529C26.375,864.143,27.943,865.723,29.877,865.723z M29.877,864.155
		c-1.074,0-1.945-0.878-1.945-1.961c0-1.083,0.871-1.961,1.945-1.961s1.945,0.878,1.945,1.961
		C31.822,863.277,30.951,864.155,29.877,864.155z M16.625,839.766l-7.993,22.179l0.862-0.505l-3.264-0.559
		c-0.424-0.073-0.826,0.215-0.898,0.642c-0.072,0.427,0.213,0.832,0.637,0.905l3.264,0.559l0.64,0.11l0.222-0.615l7.993-22.179
		c0.147-0.407-0.062-0.857-0.466-1.005C17.218,839.149,16.771,839.359,16.625,839.766L16.625,839.766z M23.523,850.985h8.234
		l-0.031-0.731l-0.304-7.185l-0.029-0.68l-0.675,0.009l-5.885,0.077l-0.57,0.007l-0.105,0.564l-1.319,7.108l-0.154,0.83
		L23.523,850.985L23.523,850.985z M23.523,849.584l0.683,0.83l1.319-7.108l-0.674,0.572l5.885-0.077l-0.704-0.671l0.304,7.185
		l0.695-0.731L23.523,849.584L23.523,849.584z"/>
	<path fill="#BD081B" d="M14.103,858.017l-2.918-0.86l-0.437,1.506l2.918,0.86L14.103,858.017L14.103,858.017z M23.749,863.371
		h3.837v-1.569h-3.837L23.749,863.371L23.749,863.371z"/>
	<path fill="#BD081B" d="M31.817,898.829H14.535c-1.304,0-2.361-1.047-2.361-2.334v-27.325l-0.786,0.78h17.281
		c1.303,0,2.361,1.051,2.361,2.345v23.504c0,0.431,0.352,0.781,0.786,0.781c0.434,0,0.786-0.349,0.786-0.781v-23.504
		c0-2.155-1.762-3.906-3.933-3.906H10.602v28.105c0,2.15,1.762,3.895,3.933,3.895h17.281c0.434,0,0.786-0.349,0.786-0.781
		C32.602,899.179,32.25,898.829,31.817,898.829z"/>
	<path fill="#BD081B" d="M15.44,873.959c0-0.409,0.335-0.741,0.749-0.741h10.541c0.411,0,0.749,0.336,0.749,0.741v17.951
		c0,0.409-0.335,0.741-0.749,0.741H16.189c-0.411,0-0.749-0.336-0.749-0.741L15.44,873.959L15.44,873.959z M13.936,873.959v17.951
		c0,1.23,1.011,2.236,2.254,2.236h10.541c1.245,0,2.254-1.001,2.254-2.236v-17.951c0-1.23-1.011-2.236-2.254-2.236H16.189
		C14.945,871.723,13.936,872.724,13.936,873.959z M21.602,898.049c0.868,0,1.571-0.699,1.571-1.561c0-0.862-0.704-1.561-1.571-1.561
		c-0.868,0-1.571,0.699-1.571,1.561C20.031,897.35,20.734,898.049,21.602,898.049z"/>
	<path fill="#BD081B" d="M15.746,906.125c2.01-0.03,3.359,0.488,4.216,1.348c0.28,0.281,0.485,0.579,0.627,0.873
		c0.08,0.165,0.119,0.281,0.129,0.324l-0.02-0.177v13.745c0-0.066,0.065-0.219,0.308-0.327c0.233-0.103,0.378-0.056,0.425-0.017
		l-0.516,0.612l0.645-0.474c-0.224-0.304-0.677-0.694-1.411-1.058c-1.142-0.566-2.665-0.898-4.614-0.898
		c-1.957,0-3.408,0.325-4.427,0.886c-0.683,0.377-1.072,0.796-1.238,1.139l0.72,0.349l-0.601-0.528
		c0.058-0.066,0.227-0.148,0.525-0.031c0.289,0.114,0.355,0.277,0.355,0.356v-13.752l-0.106,0.397
		c0.039-0.069,0.134-0.212,0.282-0.404c0.254-0.33,0.561-0.661,0.921-0.97c1.038-0.892,2.284-1.413,3.757-1.39H15.746
		L15.746,906.125z M15.747,904.525c-1.895-0.029-3.507,0.645-4.823,1.776c-0.769,0.661-1.28,1.324-1.549,1.793l-0.106,0.185v13.965
		c0,1.169,1.142,1.618,1.921,0.732l0.072-0.082l0.047-0.098c0.024-0.051,0.183-0.222,0.571-0.435
		c0.765-0.422,1.952-0.687,3.654-0.687c1.71,0,2.99,0.279,3.903,0.732c0.499,0.247,0.757,0.469,0.833,0.572l0.056,0.076l0.073,0.061
		c0.847,0.715,1.899,0.249,1.899-0.879v-13.745l-0.02-0.177c-0.121-0.532-0.472-1.259-1.182-1.972
		c-1.171-1.176-2.941-1.854-5.373-1.818C15.723,904.525,15.747,904.525,15.747,904.525z"/>
	<path fill="#BD081B" d="M5.269,912.577v14.943c0,1.148,1.087,1.602,1.921,0.831l0.062-0.065c0.058-0.067,0.194-0.205,0.407-0.391
		c0.369-0.321,0.815-0.645,1.336-0.949c1.501-0.874,3.302-1.399,5.409-1.399c2.064,0,3.66,0.603,4.868,1.603
		c0.418,0.346,0.758,0.716,1.025,1.083c0.154,0.212,0.245,0.367,0.28,0.438c0.193,0.397,0.672,0.563,1.069,0.369
		c0.397-0.193,0.563-0.672,0.369-1.069c-0.264-0.542-0.817-1.303-1.723-2.053c-1.489-1.233-3.444-1.971-5.889-1.971
		c-2.402,0-4.477,0.606-6.214,1.616c-1.054,0.614-1.77,1.236-2.149,1.676l0.605,0.523l-0.543-0.588
		c0.045-0.042,0.193-0.097,0.44,0.006c0.258,0.108,0.325,0.266,0.325,0.337v-14.943c0-0.442-0.358-0.8-0.8-0.8
		S5.269,912.135,5.269,912.577z M27.044,904.525c-2.432-0.036-4.202,0.643-5.373,1.818c-0.71,0.713-1.062,1.44-1.182,1.972
		l-0.02,0.177v13.745c0,1.128,1.051,1.594,1.899,0.879l0.073-0.061l0.056-0.076c0.076-0.103,0.333-0.325,0.833-0.572
		c0.914-0.453,2.193-0.732,3.903-0.732c1.702,0,2.889,0.266,3.654,0.687c0.387,0.214,0.546,0.385,0.571,0.435l0.047,0.098
		l0.072,0.082c0.779,0.886,1.921,0.437,1.921-0.732v-13.965l-0.106-0.185c-0.269-0.469-0.779-1.133-1.549-1.793
		c-1.317-1.131-2.929-1.805-4.823-1.776C27.02,904.525,27.044,904.525,27.044,904.525z M27.044,906.125
		c1.473-0.022,2.718,0.498,3.757,1.39c0.36,0.309,0.667,0.64,0.921,0.97c0.148,0.192,0.242,0.336,0.282,0.404l-0.106-0.397v13.752
		c0-0.079,0.066-0.242,0.355-0.356c0.298-0.117,0.468-0.034,0.525,0.031l-0.601,0.528l0.72-0.349
		c-0.166-0.343-0.555-0.762-1.238-1.139c-1.019-0.562-2.47-0.886-4.427-0.886c-1.949,0-3.471,0.332-4.614,0.898
		c-0.734,0.364-1.188,0.754-1.411,1.058l0.645,0.474l-0.516-0.612c0.047-0.039,0.192-0.086,0.425,0.017
		c0.243,0.108,0.308,0.261,0.308,0.327v-13.745l-0.02,0.177c0.01-0.043,0.049-0.159,0.129-0.324
		c0.142-0.294,0.347-0.592,0.627-0.873c0.856-0.86,2.206-1.378,4.216-1.348H27.044L27.044,906.125z"/>
	<path fill="#BD081B" d="M35.669,912.577v14.943c0-0.071,0.068-0.229,0.325-0.337c0.247-0.103,0.395-0.048,0.44-0.006l-0.543,0.588
		l0.605-0.523c-0.38-0.44-1.095-1.063-2.149-1.676c-1.737-1.011-3.812-1.616-6.214-1.616c-2.454,0-4.41,0.778-5.892,2.075
		c-0.899,0.787-1.443,1.582-1.701,2.147c-0.183,0.402-0.006,0.877,0.396,1.06c0.402,0.183,0.876,0.006,1.06-0.396
		c0.035-0.077,0.127-0.242,0.28-0.467c0.265-0.387,0.603-0.776,1.019-1.141c1.198-1.049,2.783-1.679,4.838-1.679
		c2.107,0,3.908,0.525,5.409,1.399c0.521,0.303,0.967,0.627,1.336,0.949c0.214,0.186,0.35,0.324,0.407,0.391l0.062,0.065
		c0.833,0.77,1.921,0.316,1.921-0.831v-14.943c0-0.442-0.358-0.8-0.8-0.8C36.027,911.777,35.669,912.135,35.669,912.577z"/>
	<path fill="#BD081B" d="M8.837,961.652c-0.221,0-0.434-0.089-0.59-0.245c-0.223-0.223-0.304-0.55-0.212-0.851
		c0.018-0.059,1.815-5.943,2.174-7.269c0.039-0.143,0.114-0.273,0.218-0.378c0,0,15.91-15.917,16.378-16.379
		c0.854-0.853,1.997-1.354,3.203-1.401c1.12,0.025,2.184,0.493,2.959,1.302c1.022,0.982,1.552,2.033,1.573,3.126
		c0.016,1.106-0.489,2.199-1.507,3.249c-0.985,1.017-15.825,15.692-16.457,16.316c-0.098,0.097-0.218,0.168-0.35,0.207
		c-1,0.298-7.073,2.261-7.134,2.281C9.011,961.637,8.924,961.651,8.837,961.652z M11.769,953.953
		c-0.313,1.113-1.244,3.924-1.771,5.658c1.745-0.562,4.588-1.547,5.552-1.844c1.586-1.569,15.361-15.194,16.285-16.145
		c0.691-0.714,1.039-1.399,1.027-2.035c-0.013-0.621-0.365-1.271-1.052-1.93c-0.467-0.504-1.114-0.804-1.8-0.835
		c-0.763,0.054-1.482,0.378-2.028,0.915c-0.441,0.435-14.56,14.561-16.214,16.215C11.767,953.953,11.769,953.953,11.769,953.953z
		 M16.218,959.069c-0.424-0.002-0.781-0.319-0.832-0.74c-0.196-0.965-0.671-1.851-1.366-2.547c-0.702-0.765-1.626-1.291-2.643-1.503
		c-0.46-0.059-0.787-0.477-0.734-0.938c0.048-0.46,0.459-0.793,0.919-0.745h0.001c2.779,0.558,4.947,2.737,5.489,5.519
		c0.06,0.462-0.266,0.886-0.728,0.947c-0.036,0.005-0.073,0.007-0.11,0.007C16.216,959.068,16.218,959.069,16.218,959.069z
		 M31.172,943.926c-0.424-0.002-0.781-0.319-0.832-0.74c-0.447-2.009-2.006-3.584-4.011-4.05c-0.459-0.061-0.785-0.478-0.733-0.938
		c0.047-0.458,0.457-0.792,0.916-0.745c0.001,0,0.002,0,0.003,0c1.398,0.252,2.677,0.949,3.646,1.986
		c0.96,0.962,1.604,2.194,1.845,3.531c0.063,0.46-0.259,0.885-0.719,0.948c-0.039,0.005-0.079,0.008-0.119,0.008
		C31.169,943.925,31.172,943.926,31.172,943.926z"/>
	<path fill="#BD081B" d="M34.709,987.462c-0.8-0.736-1.728-1.472-2.4-1.92c-0.864-0.608-1.792-1.216-2.656-1.6
		c-1.344-0.672-1.856-0.8-2.208-0.8c-0.608,0-1.12,0.32-1.6,0.928c-0.256,0.384-0.544,0.928-0.736,1.408
		c-0.128,0.32-0.384,0.864-0.544,1.056c-0.256-0.064-0.992-0.384-2.208-1.184c-1.12-0.8-2.336-1.792-3.264-2.656
		c-0.928-0.928-1.856-2.144-2.656-3.264c-0.8-1.184-1.12-1.92-1.184-2.208c0.192-0.128,0.736-0.384,1.056-0.544
		c0.48-0.192,0.992-0.384,1.408-0.736c0.672-0.48,0.928-0.992,0.928-1.6c0-0.32-0.064-0.864-0.8-2.208
		c-0.384-0.8-0.992-1.728-1.6-2.656c-0.48-0.672-1.216-1.6-1.92-2.4c-0.864-0.864-1.472-1.28-2.08-1.28
		c-1.472,0-3.136,2.144-3.584,2.72c-0.608,0.8-2.08,3.008-2.08,4.992c0,1.856,1.28,4.32,2.336,6.08
		c1.408,2.272,3.392,4.8,5.536,7.008l0.672,0.672c2.208,2.144,4.672,4.128,7.008,5.536c0.736,0.48,1.6,0.928,2.464,1.344
		c0.128,0.064,0.192,0.064,0.32,0.064c0.475,0.002,0.862-0.382,0.864-0.857c0-0.002,0-0.005,0-0.007c0-0.32-0.192-0.672-0.544-0.8
		c-0.672-0.32-1.408-0.736-2.208-1.216c-2.208-1.344-4.544-3.2-6.656-5.28l-0.672-0.672c-2.08-2.144-3.936-4.48-5.28-6.656
		c-1.344-2.144-2.08-4-2.08-5.12c0-0.992,0.608-2.464,1.664-3.872c0.48-0.608,0.928-1.184,1.408-1.6
		c0.48-0.416,0.736-0.544,0.864-0.544c0.32,0.128,1.344,0.992,2.72,3.072c0.544,0.8,1.056,1.6,1.408,2.336
		c0.48,0.864,0.544,1.28,0.544,1.344c0,0-0.128,0.128-0.32,0.256c-0.256,0.128-0.672,0.32-0.992,0.48
		c-0.48,0.192-0.864,0.384-1.28,0.608c-0.608,0.384-0.864,0.864-0.864,1.408c0,0.256,0,1.056,1.536,3.264
		c0.8,1.184,1.856,2.528,2.88,3.52c0.992,0.992,2.336,2.08,3.52,2.88c2.208,1.472,3.008,1.536,3.264,1.536
		c0.544,0,0.992-0.256,1.408-0.864c0.256-0.32,0.384-0.8,0.608-1.28c0.128-0.32,0.32-0.736,0.48-0.992
		c0.192-0.128,0.32-0.192,0.32-0.192c0.064,0,0.48,0.064,1.344,0.544c0.672,0.384,1.536,0.864,2.336,1.408
		c1.984,1.408,2.944,2.4,3.072,2.72c-0.064,0.128-0.192,0.384-0.544,0.864c-0.384,0.48-0.992,0.992-1.6,1.408
		c-0.928,0.672-1.92,1.216-2.72,1.472c-0.32,0.128-0.544,0.48-0.544,0.8c-0.002,0.475,0.382,0.862,0.857,0.864
		c0.002,0,0.005,0,0.007,0c0.064,0,0.128,0,0.192-0.064c0.064,0,0.064,0,0.128-0.064c1.408-0.48,2.592-1.28,3.2-1.728
		c0.672-0.48,2.72-2.208,2.72-3.616C35.957,988.934,35.573,988.326,34.709,987.462z"/>
	<path fill="#BD081B" d="M6.031,1004.699h27.429c1.26,0,2.286,1.032,2.286,2.3v13.749l0.762-0.764h-4.571l0.762,0.764v-3.821H9.84
		v3.821l0.762-0.764H9.08c-1.261,0-2.287-1.032-2.287-2.3v-13.749L6.031,1004.699L6.031,1004.699z M6.031,1003.171H5.269v14.513
		c0,2.111,1.707,3.828,3.811,3.828h2.284v-3.821l-0.762,0.764h21.333l-0.762-0.764v3.821h6.095v-14.513
		c0-2.111-1.706-3.828-3.81-3.828H6.031L6.031,1003.171z"/>
	<path fill="#BD081B" d="M28.888,1027.626l0.762-0.764H12.888l0.762,0.764v-6.976c0-0.422-0.341-0.764-0.762-0.764
		c-0.421,0-0.762,0.342-0.762,0.764v6.976c0,0.422,0.341,0.764,0.762,0.764H29.65c0.421,0,0.762-0.342,0.762-0.764v-6.976
		c0-0.422-0.341-0.764-0.762-0.764c-0.421,0-0.762,0.342-0.762,0.764C28.888,1020.65,28.888,1027.626,28.888,1027.626z
		 M11.745,1010.049h9.905v-1.528h-9.905V1010.049z M12.126,1003.935v-6.114l-0.762,0.764h19.81l-0.762-0.764v6.114h1.524v-6.878
		H10.602v6.878H12.126L12.126,1003.935z"/>
	<path fill="#BD081B" d="M21.402,1060.39h-0.267c-7.933,0-14.333-6.4-14.333-14.333v-13.933c0-0.4,0.267-0.667,0.667-0.667h3.333
		c2.733,0,5.467-0.667,7.933-1.867l2.267-1.133c0.2-0.067,0.4-0.067,0.6,0l2.267,1.133c2.467,1.2,5.2,1.867,7.933,1.867h3.333
		c0.4,0,0.667,0.267,0.667,0.667c0,0.4-0.267,0.667-0.667,0.667h-3.333c-2.933,0-5.867-0.667-8.533-2l-2-1l-1.933,1
		c-2.667,1.333-5.6,2-8.533,2H8.136v13.267c0,7.2,5.8,13,13,13h0.267c7.133,0,13-5.8,13-13v-9.333l-12.667,12.2
		c-0.267,0.267-0.667,0.267-0.933,0l-6.267-6.267c-0.267-0.267-0.267-0.667,0-0.933c0.267-0.267,0.667-0.267,0.933,0l5.8,5.8
		l13.333-12.8c0.2-0.2,0.467-0.267,0.733-0.133c0.267,0.133,0.4,0.333,0.4,0.6v10.867C35.736,1053.99,29.336,1060.39,21.402,1060.39
		z"/>
	<path fill="#BD081B" d="M22.071,1078.289c4.05,0,7.331-3.313,7.331-7.396s-3.281-7.396-7.331-7.396
		c-4.05,0-7.331,3.313-7.331,7.396S18.021,1078.289,22.071,1078.289z M22.071,1076.962c-3.314,0-6.003-2.716-6.003-6.068
		c0-3.353,2.689-6.069,6.003-6.069c3.314,0,6.003,2.716,6.003,6.069C28.075,1074.247,25.385,1076.962,22.071,1076.962z"/>
	<path fill="#BD081B" d="M36.571,1092.39c0-8.518-6.841-15.425-15.283-15.425s-15.283,6.908-15.283,15.425h1.327
		c0-7.788,6.25-14.098,13.956-14.098c7.706,0,13.955,6.311,13.955,14.098C35.244,1092.39,36.571,1092.39,36.571,1092.39z
		 M12.575,1078.292c1.501,0,2.715-1.226,2.715-2.735s-1.214-2.735-2.715-2.735c-1.501,0-2.715,1.226-2.715,2.735
		S11.074,1078.292,12.575,1078.292z M12.575,1076.965c-0.765,0-1.388-0.629-1.388-1.408s0.623-1.408,1.388-1.408
		s1.388,0.629,1.388,1.408S13.341,1076.965,12.575,1076.965z"/>
	<path fill="#BD081B" d="M31.223,1076.649c0.247-0.096,0.809-0.251,1.225-0.402l0.086-0.031c0.338-0.122,0.701-0.252,1.064-0.38
		c0.218-0.077,0.387-0.136,0.483-0.17l0.444-0.156v-6.713l-0.373-0.182c-0.069-0.034-0.191-0.094-0.349-0.172
		c-0.257-0.127-0.513-0.257-0.768-0.388c-0.05-0.026-0.05-0.026-0.1-0.051c-0.276-0.143-0.505-0.266-0.67-0.36
		c-0.085-0.049-0.151-0.089-0.191-0.116c0.066,0.044,0.073,0.05,0.138,0.203c-1.811-4.227-5.989-7.341-10.32-7.341
		c-6.081,0-11.008,4.975-11.008,11.109c0,0.722,0.068,1.436,0.203,2.135l1.303-0.251c-0.119-0.616-0.179-1.245-0.179-1.883
		c0-5.404,4.336-9.781,9.68-9.781c3.767,0,7.487,2.773,9.099,6.537c0.128,0.3,0.227,0.356,1.332,0.929
		c0.051,0.027,0.051,0.027,0.103,0.053c0.261,0.134,0.523,0.266,0.786,0.396c0.119,0.059,0.238,0.118,0.358,0.176l-0.373-0.597
		v5.827l0.445-0.626c-0.163,0.057-0.325,0.114-0.488,0.172c-0.358,0.127-0.716,0.255-1.073,0.384l-0.087,0.031
		c-0.425,0.154-0.777,0.285-1.035,0.386c-0.151,0.059-0.27,0.107-0.357,0.146c-0.057,0.025-0.102,0.047-0.143,0.07
		c-0.043,0.024-0.043,0.024-0.116,0.078c-0.14,0.066-0.448,0.307-0.219,0.736C30.353,1076.843,31.089,1076.701,31.223,1076.649z"/>
	<path fill="#BD081B" d="M37.482,1122.984c-0.008-0.089-0.023-0.259-0.042-0.499c-0.035-0.446-0.067-0.892-0.094-1.339
		c-0.093-1.513-0.145-3.034-0.136-4.448c0.017-2.488,0.232-4.355,0.639-5.213c0.027-0.056,0.055-0.113,0.085-0.171
		c0.398-0.763,0.713-1.172,2.247-3.012c2.187-2.625,3.082-4.182,3.082-6.247c0-4.35-2.4-9.203-5.396-9.203
		c-0.834,0-1.045,0.256-3.421,3.496c-2.415,3.293-3.571,4.804-5.299,6.804c-0.397,0.459-0.801,0.913-1.212,1.359
		c-3.425,3.72-8.928,7.899-10.71,8.459c-0.844,0.265-1.529,0.466-2.168,0.64c-0.34,0.092-1.229,0.322-1.318,0.346
		c-0.113,0.03-0.227,0.062-0.339,0.094c-0.681,0.196-1.321,0.433-2.357,0.883c-1.556,0.675-3.279,1.783-4.376,2.894
		c-1.572,1.593-1.96,3.31-0.433,4.582l0.093,0.078l0.11,0.051c2.134,0.987,12.993,0.979,16.687,0.058
		c1.976-0.493,2.656-1.51,3.189-3.804c0.536-2.308,0.846-3.122,1.905-4.332c1.251-1.429,2.362-2.277,3.305-2.68
		c0.299-0.128,0.549-0.196,0.749-0.222c0.058-0.007,0.102-0.01,0.133-0.01c0.009,0,0.009,0,0.005,0c-0.005,0-0.005,0-0.013-0.001
		l-0.01-0.001l-0.006-0.001l-0.003,0l-0.002,0c0.503,0.071,0.97-0.28,1.042-0.785c0.072-0.505-0.28-0.973-0.785-1.044l-0.002,0
		l-0.005-0.001l-0.008-0.001c-0.009-0.001-0.009-0.001-0.019-0.002c-0.021-0.002-0.021-0.002-0.046-0.004
		c-0.056-0.004-0.056-0.004-0.127-0.005c-0.115-0.001-0.244,0.006-0.386,0.024c-0.37,0.047-0.786,0.161-1.241,0.355
		c-1.213,0.518-2.544,1.534-3.969,3.162c-1.32,1.508-1.713,2.542-2.314,5.131c-0.393,1.691-0.697,2.145-1.837,2.429
		c-3.323,0.829-13.78,0.837-15.464,0.058l0.204,0.129c-0.474-0.395-0.351-0.937,0.565-1.865c0.916-0.928,2.443-1.91,3.796-2.497
		c0.968-0.42,1.535-0.63,2.133-0.802c0.095-0.027,0.195-0.055,0.307-0.085c0.078-0.021,0.971-0.252,1.325-0.348
		c0.663-0.18,1.371-0.388,2.237-0.66c2.154-0.677,7.89-5.034,11.515-8.97c0.424-0.461,0.841-0.929,1.25-1.403
		c1.771-2.049,2.948-3.587,5.391-6.92c0.899-1.226,1.308-1.77,1.679-2.219c0.208-0.252,0.372-0.431,0.488-0.537
		c0.005-0.005-0.028,0.015-0.236,0.015c1.621,0,3.548,3.896,3.548,7.355c0,1.481-0.738,2.766-2.654,5.065
		c-1.643,1.972-1.979,2.407-2.466,3.341c-0.04,0.077-0.079,0.154-0.116,0.232c-0.563,1.185-0.799,3.235-0.818,5.993
		c-0.01,1.461,0.044,3.022,0.139,4.574c0.028,0.458,0.06,0.915,0.096,1.372c0.02,0.249,0.035,0.427,0.044,0.524
		c0.047,0.508,0.498,0.881,1.006,0.834C37.156,1123.942,37.53,1123.492,37.482,1122.984L37.482,1122.984z"/>
	<path fill="#BD081B" d="M8.07,1129.058l6.705,6.336c0.17,0.16,0.394,0.25,0.628,0.25h12.745c0.505,0,0.914-0.409,0.914-0.914
		c0-0.505-0.409-0.914-0.914-0.914H15.402l0.628,0.25l-6.705-6.336c-0.367-0.347-0.946-0.33-1.292,0.036
		C7.686,1128.132,7.702,1128.711,8.07,1129.058z M8.467,1143.822l6.718,6.772c0.356,0.359,0.935,0.361,1.293,0.005
		c0.358-0.356,0.361-0.935,0.005-1.293l-6.718-6.772c-0.356-0.359-0.935-0.361-1.293-0.005
		C8.114,1142.884,8.112,1143.463,8.467,1143.822L8.467,1143.822z"/>
	<path fill="#BD081B" d="M11.104,1131.628l-4.964,18.066c-0.16,0.582,0.278,1.157,0.882,1.157h28.917
		c0.505,0,0.914-0.409,0.914-0.914c0-0.505-0.409-0.914-0.914-0.914H7.021l0.882,1.156l4.964-18.066
		c0.134-0.487-0.152-0.99-0.639-1.124C11.741,1130.855,11.238,1131.141,11.104,1131.628z M6.602,1154.23h10.895
		c0.505,0,0.914-0.409,0.914-0.914c0-0.505-0.409-0.914-0.914-0.914H6.602c-0.505,0-0.914,0.409-0.914,0.914
		C5.688,1153.821,6.097,1154.23,6.602,1154.23z"/>
	<path fill="#BD081B" d="M14.224,1170.922c0.526,0.525,2.554,2.665,2.554,2.665l1.124-1.159l-1.762-1.82l3.382-3.592
		c0,0-1.526-1.488-0.858-0.895c0.639-2.372,0.057-5.018-1.745-6.883c-1.786-1.85-4.324-2.456-6.604-1.819l3.864,3.991l-1.017,3.916
		l-3.783,1.045l-3.862-3.992c-0.616,2.357-0.03,4.979,1.76,6.83c1.878,1.941,4.582,2.512,6.948,1.714L14.224,1170.922z
		 M27.107,1174.802l-4.66,4.603l7.685,7.963c0.627,0.65,1.453,0.975,2.277,0.975c0.82,0,1.645-0.324,2.275-0.975
		c1.258-1.301,1.258-3.406,0-4.707l-7.578-7.859H27.107z M37.258,1161.447l-4.894-5.057l-14.427,14.916l1.762,1.82l-8.635,8.925
		l-1.974,1.055l-2.788,4.549l0.71,0.736l4.401-2.883l1.02-2.041l8.636-8.924l1.763,1.82L37.258,1161.447L37.258,1161.447z"/>
	<path fill="#BD081B" d="M21.602,1214.745c3.679,0,6.513-2.125,6.513-4.493c0-2.368-2.834-4.493-6.513-4.493
		c-3.679,0-6.513,2.125-6.513,4.493C15.089,1212.619,17.923,1214.745,21.602,1214.745L21.602,1214.745z M21.602,1216.311
		c-4.462,0-8.08-2.713-8.08-6.06c0-3.347,3.617-6.06,8.08-6.06c4.462,0,8.08,2.713,8.08,6.06
		C29.682,1213.598,26.064,1216.311,21.602,1216.311z M15.543,1203.965c1.548,0,2.803-1.255,2.803-2.803
		c0-1.548-1.255-2.803-2.803-2.803c-1.548,0-2.803,1.255-2.803,2.803C12.739,1202.71,13.994,1203.965,15.543,1203.965z
		 M15.543,1202.399c-0.683,0-1.237-0.554-1.237-1.237c0-0.683,0.554-1.237,1.237-1.237s1.237,0.554,1.237,1.237
		C16.779,1201.845,16.226,1202.399,15.543,1202.399L15.543,1202.399z M27.662,1203.965c1.548,0,2.803-1.255,2.803-2.803
		c0-1.548-1.255-2.803-2.803-2.803c-1.548,0-2.803,1.255-2.803,2.803C24.859,1202.71,26.114,1203.965,27.662,1203.965z
		 M27.662,1202.399c-0.683,0-1.237-0.554-1.237-1.237c0-0.683,0.554-1.237,1.237-1.237c0.683,0,1.237,0.554,1.237,1.237
		C28.898,1201.845,28.345,1202.399,27.662,1202.399L27.662,1202.399z"/>
	<path fill="#BD081B" d="M34.399,1212.364c1.383-2.145,2.126-4.603,2.126-7.162c0-7.697-6.693-13.913-14.922-13.913
		c-8.229,0-14.922,6.215-14.922,13.913c0,7.697,6.693,13.912,14.922,13.912c3.808,0,7.396-1.336,10.136-3.701
		c0.327-0.283,0.364-0.777,0.081-1.105c-0.283-0.328-0.777-0.364-1.105-0.081c-2.456,2.12-5.681,3.321-9.113,3.321
		c-7.389,0-13.356-5.541-13.356-12.346c0-6.805,5.967-12.346,13.356-12.346s13.356,5.541,13.356,12.346
		c0,2.254-0.654,4.418-1.876,6.313c-0.235,0.364-0.13,0.848,0.234,1.083C33.679,1212.832,34.164,1212.727,34.399,1212.364
		L34.399,1212.364z"/>
	<path fill="#BD081B" d="M34.434,1199.051c1.312-1.06,2.09-2.654,2.09-4.374c0-3.104-2.516-5.62-5.62-5.62
		c-2.278,0-4.304,1.368-5.177,3.43l1.443,0.611c0.63-1.487,2.091-2.474,3.735-2.474c2.239,0,4.054,1.815,4.054,4.054
		c0,1.241-0.561,2.389-1.508,3.155C33.45,1197.832,34.434,1199.051,34.434,1199.051z M9.392,1197.832
		c-0.948-0.766-1.508-1.914-1.508-3.155c0-2.239,1.815-4.054,4.054-4.054c1.643,0,3.105,0.987,3.735,2.474l1.443-0.611
		c-0.873-2.062-2.899-3.43-5.177-3.43c-3.104,0-5.62,2.516-5.62,5.62c0,1.72,0.778,3.314,2.09,4.374
		C8.407,1199.051,9.392,1197.832,9.392,1197.832z M21.973,1210.022c1.195,0,2.164-0.969,2.164-2.164
		c0-1.195-0.969-2.164-2.164-2.164s-2.164,0.969-2.164,2.164C19.809,1209.053,20.778,1210.022,21.973,1210.022z M21.973,1208.455
		c-0.33,0-0.597-0.267-0.597-0.597c0-0.33,0.267-0.597,0.597-0.597c0.33,0,0.597,0.267,0.597,0.597
		C22.57,1208.188,22.302,1208.455,21.973,1208.455z"/>
	<path fill="#BD081B" d="M30.101,1231.835c-0.186-0.278-0.498-0.445-0.832-0.445h-1c-0.553,0-1,0.447-1,1v6c0,0.553,0.447,1,1,1h4
		c0.553,0,1-0.447,1-1v-1.5c0-0.198-0.059-0.391-0.168-0.555L30.101,1231.835z M32.269,1238.39h-4v-6h1l3,4.5V1238.39z
		 M36.765,1235.726l-4-6c-0.558-0.837-1.492-1.336-2.496-1.336h-4v-2c0-1.654-1.346-3-3-3h-15c-1.654,0-3,1.346-3,3v11
		c0,1.654,1.346,3,3,3v3c0,1.654,1.346,3,3,3h1.142c0.447,1.721,2,3,3.859,3c1.857,0,3.41-1.279,3.857-3h5.282
		c0.447,1.721,2,3,3.859,3c1.857,0,3.41-1.279,3.857-3h1.144c1.654,0,3-1.346,3-3v-6
		C37.269,1236.796,37.095,1236.22,36.765,1235.726z M8.269,1238.39c-0.552,0-1-0.447-1-1v-11c0-0.553,0.448-1,1-1h15
		c0.553,0,1,0.447,1,1v11c0,0.553-0.447,1-1,1H8.269z M16.27,1247.39c-1.105,0-2-0.896-2-2s0.895-2,2-2c1.104,0,2,0.896,2,2
		S17.373,1247.39,16.27,1247.39z M29.269,1247.39c-1.105,0-2-0.896-2-2s0.895-2,2-2c1.104,0,2,0.896,2,2
		S30.373,1247.39,29.269,1247.39z M35.269,1243.39c0,0.553-0.447,1-1,1h-1.143c-0.447-1.721-2-3-3.857-3
		c-1.859,0-3.412,1.279-3.859,3h-5.282c-0.447-1.721-2-3-3.857-3c-1.859,0-3.412,1.279-3.859,3h-1.143c-0.552,0-1-0.447-1-1v-3h13
		c1.654,0,3-1.346,3-3v-7h4c0.334,0,0.646,0.167,0.832,0.445l4,6c0.109,0.165,0.168,0.358,0.168,0.555V1243.39z"/>
	<path fill="#BD081B" d="M37.269,1271.69c0.011,5.445-4.394,9.869-9.84,9.88c0,0,0,0,0,0h-0.021c-2.183-0.02-4.297-0.774-6-2.14
		c-4.356,3.392-10.638,2.611-14.03-1.745c-1.336-1.716-2.076-3.82-2.108-5.995v-15.54h1.88v15.54
		c-0.003,4.418,3.577,8.002,7.995,8.005c1.724,0.001,3.403-0.555,4.785-1.585c-1.55-1.78-2.409-4.058-2.42-6.419v-12.72
		c0-2.077,1.683-3.76,3.76-3.76s3.76,1.683,3.76,3.76v12.72c0.008,2.353-0.83,4.631-2.36,6.419c3.565,2.607,8.568,1.83,11.174-1.734
		c0.001-0.001,0.002-0.003,0.003-0.004c0.993-1.36,1.533-2.998,1.543-4.681v-15.54h1.88V1271.69z M23.149,1258.97
		c0-1.038-0.842-1.88-1.88-1.88s-1.88,0.842-1.88,1.88l0,0v12.72c0.003,1.881,0.668,3.701,1.88,5.14
		c1.211-1.439,1.877-3.259,1.88-5.14V1258.97z"/>
</g>
</svg>
